/* XPM */
static char *f5fbb536180145ccd25b7b0bace45519YhbeFf7LFGs0Rhb9[] = {
/* columns rows colors chars-per-pixel */
"64 64 89 1 ",
"  c black",
". c #120C0C",
"X c #18100F",
"o c #161111",
"O c #1B1211",
"+ c #1E1D1D",
"@ c #2B1C1A",
"# c #222222",
"$ c #2C2524",
"% c #2F2827",
"& c #2F2929",
"* c #352422",
"= c #382625",
"- c #322B2A",
"; c #3F2B29",
": c #3A3B3B",
"> c #462D2B",
", c #4B322F",
"< c #443736",
"1 c #4D3432",
"2 c #413F3F",
"3 c #543633",
"4 c #543835",
"5 c #5A3A37",
"6 c #563F3D",
"7 c #5D3E3A",
"8 c #613E3A",
"9 c #55403E",
"0 c #5A413E",
"q c #65413D",
"w c #68423E",
"e c #4E3E46",
"r c #523F44",
"t c #454545",
"y c #524046",
"u c #5C4343",
"i c #5B4947",
"p c #544148",
"a c #5A4449",
"s c #5D4B49",
"d c #545252",
"f c #5C5757",
"g c #614541",
"h c #6D4642",
"j c #664844",
"k c #6C4B47",
"l c #664B4D",
"z c #6B4B4B",
"x c #704743",
"c c #714844",
"v c #724E4A",
"b c #6C524F",
"n c #77514C",
"m c #7A534E",
"M c #6D5350",
"N c #655A59",
"B c #765251",
"V c #7C5552",
"C c #725956",
"Z c #7A5956",
"A c #765C59",
"S c #7D5F5C",
"D c #666666",
"F c #6A6A6A",
"G c #7B6664",
"H c #7F6C6A",
"J c #757575",
"K c #7C7675",
"L c #7C7B7B",
"P c #815651",
"I c #865954",
"U c #8A5B55",
"Y c #80625F",
"T c #856E6C",
"R c #837B7A",
"E c #8B7B79",
"W c #917F7E",
"Q c #858585",
"! c #8E8786",
"~ c #8C8C8D",
"^ c #908786",
"/ c #948C8B",
"( c #8F8F90",
") c #8F9090",
"_ c #929393",
"` c #9B9393",
"' c #9E9E9E",
"] c #A2A2A2",
"[ c #A9AAAA",
/* pixels */
"eepalvnnnnnnnnnnnnnnnnnnnnnnnnnnnnnnnnnnnnnnnnnnnmnnnnvlapeeepyy",
"eyplznnnnnnnnnnnnnnnnnnnnnnnnnnnnnnnnnnnnnnnnnnnPcnnnnnzlppepepe",
"rpajzvnnnnnnnnnnnnnnnnnnnnnnnnnnnnnnnnnnnnncnnnnnnnnnnvcjaappyyy",
"alalznnnnnnnnnnnnnnnnnnnnnnnnnnnnnnPnnnnnnnPnnnnnnnnnnnvzllappye",
"zzzznnnnnnnnnnnnnnnnnnnnnnnnnnnnnnnnnnnnnnnnnnnnnnnnnnnnBBMlappe",
"vvvnvnnnnnnnnnnnnnnnnnnnnnnnnnnnnnnnnnnnnnnnnnnnnnnnnnnPPIVBlaye",
"nnnnnnnnnnnnnnnnnnnnnnnnnnnnnnnnnnnnnnnnnnnnnnnnnnnnnnPPIUIBlaye",
"nnnnnnnnnnmnnnnnnnnnPnnnnnnnnnPcnnnnnnnnnnnnnnnnnnnnnnmPIUIClaye",
"nPnnnnnnnnnnnnnnnnnnnnnnnnnnnnnnnnnnnnnnnnnnnnnnnnnnnnPPIUIBlaee",
"nnnnnnnnnnnmnnnnnnnnnnnnnnnnnnnnnnnnnnnnnnnPnnnnnnnnnnnPUUIBlree",
"nnnnnnnnnnnnnnnnnnnnnnnnnmnnnnnmnnnnnnnnnnnnnnnnnnnnnnnPIUIBMree",
"nnnnnnnnnnnnnnnnnnnnnnnnnnnnnnnnnnnnnnnnnnnnnnnnnnnnnnnPIUIBllre",
"nnnnnnnnnnnnnnnnnnnnnnnnnnnnnnnnnnnnnnnnnnnnnnnnnnnnnnBPIUIBllee",
"nnnnnnnnnnnnnnnmnnnnnnnnnnnnnnnnnnnnnnnnnnnnnnnnnnnnnnPPIUIBlree",
"nnnnnnnnnnnnnnnnnnnnnnnnnnnnnnnnnnnnnnnnnnnnnnnnnnnnnnBPIUIBMeee",
"nnnnnnnnnnnnnnnnnnnnnnnnnnnnnnnnnnnnPcnnnnnnnnnnnnnvnBBIIUUBllee",
"nnnnnnnnnnnnnnnnnnnnnnn0O              O8nnnnnnnnnnnnnnPUUIBzare",
"nnnnnnnnnnnnnnnnnnnvq77,@XOXXOXXOOXXOXO@,66qcnnnnnnnnnnPIUIBlree",
"nnnnnnnnnnnnnnnnnnnw*OX@>34455353353335>@OO*gnnnnnnnnnPPIUIBlree",
"nnnnnnnnnnnnnnnnncw1-#O@8cnccccccccnccc7@O+$1hvnnnnnnnnPUUPBzlee",
"nnnnnnnnPnnnnnnnmq*-DF03qccccccccccccccw36fd$*gnnnnnvnnPIUIBlaee",
"nnnnnnnnnnnnnnnn01-t!`AqhcccccchcccchcccqCRJ:#17nnnnnnPPIUIBlaee",
"nPnnnnnnnnnnnnnnO-DQ]/AqhcccccccccccccchqMRQJd&OnnnnnnBPIUIBMree",
"ncnnnnnnnnnnnnnn &L[[/CqwcccccccccccchchqbK~(F# nnnnnnBPIUIVllre",
"nnnnnnnnnnnncnnn $L[[/CqwccchcchxccchcchgMR~/D# nnnnnnPPUUIBlaee",
"nnnnnnnnnnnnPnnn $J]]!Cqwcccccccxcxccchh8BR__F# nnnnnnnPIUIBleee",
"nnnnnnnnnnnnnnnn #F__Rbqwcccccccccccxxch8C!]]J$ nnnnnnnPIUIBBeee",
"nnnnnnnnnnnnnnnn #F)~Kbqhchchcxxcxxccxkh8C/[[L& nnnnnnnPIUIBllee",
"nnPnnnnnnnnnnnnn #D)~KbqhcccccccccccxxchqC/[[L& nnnnnnBPUUIBllee",
"nnnnnnnnnnnnnnnn #D~~Kbqwckcccxxhhcccchw8C/[[L# nnnnnnPPIUIBleee",
"nnnnnnnnnnnnnnnn #D)~Rbqqwhhhcwxxxcckhhq8C([[L$ nnnnBnBPIUIBBeee",
"nnnnnnnnnnnnnnnn #F__RbqqqhhwvZYSZchwhq77C/[[L$ nnnnBBBPIUIBllee",
"nnnnnnnnnnnnnnnn $J]]^C880qq8CE``Enqq0887C/[[K& nnnnnnmPIUIBlaye",
"nnnnnmnnnnnnnnnn $J]]^GbbMMnnH`[[`HCbMMbbG/]]J# nnnnnnmPIUIBlaye",
"nnnnnnnnnnnmnnnn #F`_~RRRRLR!`][[]`^RKRRRR~)_F# nnnnnnmPUUIBlaye",
"nnnnnnnnnnnnnnnn #D~~QLKKKRQ''QLJQ''!RKKKLQ~~D# nnnnnnmPIUImlpye",
"nnnnnnnnnnnnnnnn #D~~KNiilbT`~t++t~`TCjiiNK~~F# nnnnnnmPIIIBlaye",
"nnnnnnnnnnnnmnnn #D~~Ki,,5wZWK2+#2KWZw511iK~~D+ nnnnnnmPIUIBlaye",
"nnnnnnnnmnnnnnnn #D~~Ki38whcZTKLLKTVvhh73iK~~D+ nnnnnnBPIUIClaye",
"nnnnnnnnnnnnnnnn #D~~Ki4qvccwV^``WZwhccq4iK~~D# nnnnnnmVIUIBlaye",
"nnnnnnnnnnnnnnnn #D~~Ki4wccxwvIYGZvxxccg3sK~~D# nnnnnnnPUUIBlaee",
"nnnnnnnnnnnnnnnn +D~~Ki4qvcccccwxxxxcccw3sK~~D# nnnnnnPPIUIBleee",
"nnnnnnnnnnnnnnnn #D~~Ki4wcccccccxcxxcccg4aK~~D# nnnnnnnPIUIBlaee",
"nnnnnnnnnnnnnnnn #D)(Ks4qhcccccccccccch84sK~)F+ nnnvnnPPIUIBlaar",
"nnnnnnnnnnnnnnnn #D_)Ks140hcwwnwcccccc743sK_)D# nnnnnnBPIUIBlaee",
"nnnnnnnnnnnnnnnnO%dFFf<==;,4q399353333>==<fFFd-OnnnnnnnPIUIBlaee",
"nnmnnnnnnnnnnnnnq1-##+o..XXOOXOOOOXOXX...o+##-1qnnnnnnVPIUIBlaee",
"nnnnnnnnnnnnnnnnn0O                          O0nnnnnnBBPIUIZlaae",
"nnnnnnnnnnnnnnnnnnnnnnnnnnnnnnnnnnnnnnnnnnnnnnnnnnnnnnmPIUIBlaee",
"nnnnnnnnnnnnnnnnnnnnnnnnnnnnnnnnnnnnnnnnnnnnnnnnnnnvnnmPIUIBlree",
"nnnnnnnnnnnnnnnnnnnnnnnnnnnnnnmnnnnnnnnnnnnnnnnnnnnnnmPIIUIVMaee",
"nnPnnnnnnnnnnnnnnnnnnnnvnnnnnnnnnnnnnnnnnnnnnnnnnnnmmPPUUUIVlare",
"nnnnnnnnnnnmnnnnmnnnnnnmnnmnnnmnnnnnnnnnnnnnnnnnnnnmPPUUUUIBlaee",
"nnnnnnnmnnnmnnnnmmnnnnnmnnmmnnmmnnnnnnnnnnnnnnnnnnnPPUUUUUIBlree",
"ccnnnmmmmmmmmmmmmmmmmmmmnmmmmmmmmmnnmmmmmmnnmmnnnmPPIUUUUUIBlaee",
"cvvvnmPPVVPPPPVVPPPPZmPmmZPPmmImPPPVPPPPPPPPPPPPPPPIUUUUIPBzaaae",
"gjjnPPIUUIUIIIIIIIIIIUIIIIUIIIIIYUIIIIIIIIIIUIIUIUUUUUUIVvcgrree",
"00gknPUUYUUUUUUUUUUUUUUUUUUUUUUUUUUUUUUUUUUUUUUUUUUUUYImzjggraea",
"0u0knPYIUIIIIIIIUIUUPUPUIIIIIIIIIIIIIIIIIIUYPIPIIIIIUUVnzgrreaee",
"9yujwnmVmmmmnnPnmmmmmmmmmmmmmmmmmmmmnPnnmmmmPnPnmmmmmPnzgrrreeea",
"y9yujkkkkkkkwkkkvwbbvMwbwbvwbkkbkbkkwbkkkkkkkkkkhkkkkkkjupyeeepe",
"yyyi0iugj0q0wqsq00q000q0q0sqq00q0qq0wq0q0qqiiq0qquiquq0uupypaepp",
"yyyy900000000000000000000000000000000000000000000000000prrpeepep",
"yyy99999990099990999009999009999009999909999909999906699yyeppepe"
};
