/* XPM */
static char *c3ba494610a04d40fb30f37db00e4019NC998hdskLzwjPXz[] = {
/* columns rows colors chars-per-pixel */
"64 64 231 2 ",
"   c #060508",
".  c #0C0A0C",
"X  c #130507",
"o  c #140C0D",
"O  c #1B0D0E",
"+  c #0D0E12",
"@  c #170E11",
"#  c #121114",
"$  c #121215",
"%  c #1C1314",
"&  c #14151A",
"*  c #191619",
"=  c #16191D",
"-  c #1A1B1D",
";  c #2E0B0C",
":  c #231313",
">  c #2A1514",
",  c #2C1917",
"<  c #221619",
"1  c #251A1C",
"2  c #2B1B1C",
"3  c #3A1313",
"4  c #341C1A",
"5  c #3B1B1C",
"6  c #3D211E",
"7  c #171A23",
"8  c #1B1D21",
"9  c #261F22",
"0  c #3C1E21",
"q  c #1C2025",
"w  c #1D222B",
"e  c #1F2631",
"r  c #232326",
"t  c #24252B",
"y  c #2A2528",
"u  c #2A292C",
"i  c #382527",
"p  c #282C36",
"a  c #352D32",
"s  c #2C313A",
"d  c #34343B",
"f  c #383639",
"g  c #441718",
"h  c #5A1D1E",
"j  c #671E1E",
"k  c #40221E",
"l  c #4F211F",
"z  c #481E21",
"x  c #6C1F20",
"c  c #452522",
"v  c #482723",
"b  c #4C2926",
"n  c #462B2B",
"m  c #552926",
"M  c #46312D",
"N  c #5C322D",
"B  c #452D31",
"V  c #4C3432",
"C  c #493638",
"Z  c #543838",
"A  c #682626",
"S  c #762626",
"D  c #653632",
"F  c #6B3433",
"G  c #673933",
"H  c #6D4229",
"J  c #2D3544",
"K  c #373B46",
"L  c #3B3D43",
"P  c #323A4C",
"I  c #353E50",
"U  c #423D44",
"Y  c #5D3D41",
"T  c #374146",
"R  c #3B4146",
"E  c #3B424B",
"W  c #374153",
"Q  c #3A4354",
"!  c #3D475A",
"~  c #3E495D",
"^  c #3F4A60",
"/  c #47454B",
"(  c #564B4C",
")  c #444654",
"_  c #4D4B51",
"`  c #464A59",
"'  c #574D54",
"]  c #545253",
"[  c #54535A",
"{  c #595759",
"}  c #654649",
"|  c #764A49",
" . c #665C5B",
".. c #775255",
"X. c #66605F",
"o. c #424D63",
"O. c #455066",
"+. c #4C5365",
"@. c #465269",
"#. c #4A556C",
"$. c #4E596D",
"%. c #5B5B62",
"&. c #545B6A",
"*. c #4A5771",
"=. c #4C5972",
"-. c #515D75",
";. c #555F78",
":. c #655B65",
">. c #7D5665",
",. c #5C636B",
"<. c #556076",
"1. c #5C6575",
"2. c #55627B",
"3. c #5A657B",
"4. c #636164",
"5. c #66656A",
"6. c #78656C",
"7. c #626D74",
"8. c #686B77",
"9. c #736E76",
"0. c #667278",
"q. c #75737B",
"w. c #77757A",
"e. c #862B2A",
"r. c #972C2D",
"t. c #9D302F",
"y. c #883635",
"u. c #963636",
"i. c #AC3333",
"p. c #A63939",
"a. c #B23434",
"s. c #9D5227",
"d. c #B4543B",
"f. c #C35E33",
"g. c #C66432",
"h. c #863D40",
"j. c #8A4E4F",
"k. c #9B4749",
"l. c #975559",
"z. c #A3484A",
"x. c #B5534E",
"c. c #8E614D",
"v. c #BB6C4C",
"b. c #8A5A66",
"n. c #925E62",
"m. c #976467",
"M. c #8F6C73",
"N. c #8B747C",
"B. c #8A7A79",
"V. c #93787A",
"C. c #A8706A",
"Z. c #C56F60",
"A. c #B5867B",
"S. c #566481",
"D. c #5A6782",
"F. c #5C6A85",
"G. c #5D6C8A",
"H. c #666B82",
"J. c #616F8C",
"K. c #62718D",
"L. c #6C7588",
"P. c #787987",
"I. c #657492",
"U. c #687795",
"Y. c #6C7A95",
"T. c #6D7D9D",
"R. c #747C95",
"E. c #6F7FA0",
"W. c #857C85",
"Q. c #957A81",
"!. c #7B828A",
"~. c #7C8697",
"^. c #76839B",
"/. c #7A859B",
"(. c #6F80A1",
"). c #7080A1",
"_. c #7987A3",
"`. c #7D8AA4",
"'. c #7E8CA9",
"]. c #84838C",
"[. c #89858D",
"{. c #8A8C8D",
"}. c #978A8E",
"|. c #888993",
" X c #86959E",
".X c #8D939C",
"XX c #969699",
"oX c #AB9695",
"OX c #838EA6",
"+X c #8693A4",
"@X c #8C97A2",
"#X c #8794AE",
"$X c #8895AE",
"%X c #8F99AD",
"&X c #9399A5",
"*X c #919CAD",
"=X c #8996B0",
"-X c #919DB5",
";X c #95A2AC",
":X c #9BA3AA",
">X c #97A6B0",
",X c #98A7B1",
"<X c #9AABB5",
"1X c #9BA6BD",
"2X c #9CADBA",
"3X c #9EB1BB",
"4X c #A5A5A6",
"5X c #B0A8AE",
"6X c #A5B4BC",
"7X c #BBBABB",
"8X c #D18586",
"9X c #D2A5A2",
"0X c #EBBCBC",
"qX c #9DA9C1",
"wX c #A1ACC1",
"eX c #A7B9C3",
"rX c #AAB9C2",
"tX c #F0BFC0",
"yX c #B8C4CB",
"uX c #CEC8C9",
"iX c #C2CED4",
"pX c #C7D2D8",
"aX c #DBD0D3",
"sX c #DBDBDC",
"dX c #DCE3E6",
"fX c #E5E5E6",
"gX c #E3EAED",
"hX c #F5E6E6",
"jX c #ECF1F4",
"kX c #F2F4F5",
"lX c #F7F9FA",
/* pixels */
"O.O.o.! W W P P P P P P P P P P P P J p 7 +                 + 7 J ! o.I I I P P T P P J P P P P P J P P J P P P P P P P P P P P ",
"O.o.o.~ ! W W P P W W W P W W P I I J p 7 +               . + 7 J I o.o.o.I I I W T W W P W W W W W W W W W W W W P P W W P P W ",
"O.o.o.^ ~ ~ ! ! ! ! ! ~ ! ! ! ! ) ! I p 7 +   . X O O O O O < y J P I o.o.) o.I ~ ~ ~ ~ ! ^ ^ ^ ! ! W ~ ! ! ! ~ ! ! ! ! ! ! ! ! ",
"o.O.O.@.@.@.*.*.#.@.#.#.#.#.#.#.*.#.o.P w + . O > 3 g g g g g i y J P I o.@.*.*.*.=.^ #.^ =.^ =.*.@.*.*.@.*.*.*.@.*.*.#.#.#.#.*.",
"o.O.@.*.-.2.D.D.D.S.F.S.D.D.D.D.D.D.*.I e # o ; g x x S S x A z 0 y p J ! ;.S.D.2.2.S.2.3.3.3.3.S.D.D.D.D.D.S.F.D.D.D.S.D.D.D.D.",
"^ O.#.-.D.K.U.U.U.U.U.U.U.U.U.U.U.I.D.o.J & O 3 h e.r.r.t.r.S A 0 * 7 J ! S.I.U.!.(.(.K.(.K.(.J.U.U.I.U.U.U.I.I.I.U.U.I.I.U.I.I.",
"^ O.*.-.G.U.(.(.E.T.T.U.T.T.T.T.U.E.J.#.J e 9 g x e.r.i.i.p.u.A g @ # 7 P =.J.K.K.G.G.G.3.F.G.(.U.U.(.U.(.T.T.T.T.T.T.T.T.(.(.(.",
"^ @.*.2.K.T.(.(.E.T.T.U.T.U.T.U.E.U.J.S.o.P d B z x S h.k.k.h.F 0 O   & s ) @.#.$.^ ^ ^ ^ ^ #.<.G.U.U.(.U.T.T.U.T.U.T.T.(._.(._.",
"o.@.#.2.J.T.E.E.T.I.I.I.I.I.I.I.I.I.K.F.-.*.` U z z z D | b.j.} i O   + q p s s p p p e e p J ! *.G.I.I.I.I.I.I.I.I.E.U.E.E.(.(.",
"^ o.#.2.G.U.T.T.U.G.G.G.G.G.G.G.G.G.G.F.S.S.#.I p 9 2 C  .6.6.' d * . . + = = = = & & & $ = q J ^ S.G.G.G.G.G.G.G.G.G.I.U.E.E.(.",
"^ o.O.=.D.J.I.J.G.S.S.S.S.S.S.S.S.D.S.2.=.*.^ P p 7 y U  .9.w.:./ u 7 7 = 8 8 8 q = 7 q 8 8 e J I @.*.S.S.S.S.S.S.S.S.G.G.I.U.U.",
"Q ! o.@.=.2.S.2.=.=.=.*.^ *.S.G.F.F.F.2.*.^ W J s s K _ 5.q.w.0.%._ E K R R T T T T T T T T T T I ! ! ^ @.^ *.*.*.*.=.=.S.S.F.S.",
"Q Q Q ^ o.@.@.@.O.o.o.^ ^ =.U._._.^.R.H.&.K J d L _ [ :.9.P.W.P.0.0.7.7.7.7.7.7.7.7.7.7.7.7.,.[ Q K s J I Q ^ ~ ^ ^ ^ O.^ @.@.@.",
"W W Q Q Q ! ! ! ! Q Q Q ^ *.).#X=X=X^.3.Q p t d _ :.9.W.w.].].[.|. X@X X+X@X X X X X X@X@X X!.,.E u 7 w J I ! ! Q ! ! ! ~ ~ ! ~ ",
"! ! ! ~ ! ! ! ! ! ! ! ! ~ $.^.#XOXR.L.+.K y t U %.P.W.|.[.[.|. X*X<X<X<X3X<X<X<X<X<X<X3X3X<X`.7.T 8 & 7 s I ! ! ! ! ! ! ! ! ~ ! ",
"#.#.2.S.D.2.3.3.2.S.3.<.#.2.Y.^.L.7.&.) L d L [ 9.W..X&X.X.X.X@X;X2X3X3X3X3X3X3X3X3X3XeXyX<X'.0.T 7 $ 7 P #.3.3.2.S.3.3.2.;.*.@.",
"@.2.T.`.`.`.`.`.'.`.'.Y.<.2.Y.L.&.) L L / _ %.8.!..X;X;X;X.X@X;X>X<X3X3X3X3X3X<X<X3X3XeX6X<X X7.T 8 $ q ` L.`.`.`.`.`.'.`.^.-.@.",
"^ <.^.=X=X$X=X$X#X=X$X^.-.<.Y.H.Q u r d _ 4.w.]. X;X>X,X,X,X>X>X3X<X<X<X<X<X<X<X3X<X3X3X6X3X X0.E - & w +.^.#X#X#X#X=X=X$X/.<.^ ",
"^ -.^.=X=X$X$X=X=X=X=X^.-.2.~.8.R 8 - d [ q.|.&X;X,X<X3X6X6XyXyXeXeXrXrXrXrXrXrXeXeXeXrXrXrX:X0.E 8 $ w +.^.#X=X#X#X=X=X=X^.-.^ ",
"O.2.^.=X=X$X=X$X#X=X=X^.-.1.L.7.K * * d %.W..X:X<X<X3XyXyXyXyXpXpXpXpXpXpXpXpXpXpXpXpXdXpXpXrX!._ r & w +.^.=X#X#X=X#X$X=X/.2.^ ",
"o.<.^.$X=X#X=X#X#X=X=X^.-.=.H.#.s & 8 f ,.].*X<X<X3X3XyXpXsXdXfXfXgXgXgXgXgXgXgXgXgXgXjXjXgXyX{.{ r & w +.^.#X#X#X#X#X=X=X^.-.^ ",
"o.<.`.-X-X-X-X-X-X-X-X`.2.*.2.+.s & 8 L 7. X<X<X<X<X6XyXsXgXkXkXkXkXkXkXkXkXkXkXjXjXkXkXkXjXsXXX{ t & w +.~.-X-X-X-X-X-X-X'.3.^ ",
"o.3.$XwXqX2XqXqXwXwXwX+X3.*.2.@.p = 8 T 7. X<X3X<X3XrXpXdXjXlXkXjXfXsXsXsXsXsXsXsXfXsXfXgXsXeXA.] r $ w ,.@XwXwXqXwXwXwX3X%X3.^ ",
"~ 2.OXqX1X1X1X1X1X1XqX+X2.=.2.+.p = q E 7.@X<X3X<X<XyXyXgXkXkXsXuX4X4XXXXX4X4X4X4X4X4X4X4X4X!.X.L - $ w ,.`.1X1X1X1X1X1X2X'.3.^ ",
"o.-.Y.'.'.'.'.'.'.'.'.Y.;.=.D.@.s = 7 T 7.@X6X3X3X3XeXpXfXkXgXuXXX9.{ { { { X.X.4.4.4.4.4.{ ] f r # $ w O.Y.'.'.'.'.`.'.'.Y.=.O.",
"o.=.I.).(.T.T.T.T.T.).J.+.` +.) e = 8 T 7. X<X3X2X<X6XpXgXkXfX7Xw./ u r r r u r u r r u u u r - $ + + r ) J.T.E.T.T.T.(.(.I.=.o.",
"O.=.K.(.(.T.T.T.E.E.).H./ M B y % $ 8 T ,. X;X<X<X3XeXpXgXkXfX5Xw./ u r r r r 8 $ + . $ 8 r r - $ . . - ) J.T.T.(.T.T.(.(.I.=.O.",
"o.=.I.).).).).).(.(.(.H.C 6 4 > o . 8 f ,.|.;X<X<X<XrXpXgXkXjXuXXXw.X.{ ,.{ _ T 8   . 8 T ] ] T t $ o * Q K.).(.(.(.(.(.(.I.=.^ ",
"o.=.I.(.).).T.(.).).).H.U g 5 > O . * f ,.!.@X:X>X<XrXpXgXlXkXfXuX5X4X4X4X4X{.4.s # $ f 5.{.{.5./ - . * ) I.(.E.(.).(.(.).I.=.o.",
"o.$.F.I.K.I.I.I.I.I.I.1.C k 4 , O . * d ] 9.|..X;X<X6XiXdXkXlXkXfXfXsXsXdXsX7X{.( r r ] XX7X7X{.] r o % K 3.I.K.I.K.I.K.I.F.#.o.",
"O.@.#.=.=.=.=.#.*.=.=.` C g 6 : o . % u / 4.q.]. X&X6XyXpXfXjXhXhXhXhXhXhXfXuXA. .M M ..oXuXuXoX{ y . % s o.=.=.=.#.=.=.=.#.@.O.",
"o.#.-.3.3.3.3.3.3.3.3.&.C c 6 , O . $ 8 a _ %.9.!. X:X6XyXuXaXaX0X0X0XtXtXuX9XA.c.H H c.A.9X9XV.( r . % K $.3.3.3.3.3.3.3.<.#.o.",
"o.1./.-X-X%X%X*X=X-X-XW.( b k 6 % . + $ 9 u U +.9.W.&X:X1X5X5X9X9XA.8X8X8XZ.8XZ.s.s.s.d.v.A.C.l.C < . 1 [ ^.%X%X%X%X=X*X-X/.;.o.",
"o.2.OXqX1X1X1X1XqXqXqX|.| N b 6 : o   . + * 9 U %.P.W.|.XX.XQ.Q.C.v.x.x.x.x.x.d.g.g.g.g.f.x.z.F z : X 9 %.+XqX1X1X1X1XqX1XOX2.o.",
"o.=.Y.OX'.'.'.'.'.'.'.P.( N b 6 , @ .       & a ' 6.Q.W.Q.N.M.n.l.z.d.p.p.p.a.d.g.g.g.g.d.d.u.A g O . 9 ` T.OXOX'.'.'.OXOXR.-.o.",
"o.=.I.E.T.T.E.E.E.E.E.8.} N m l 0 , @ X X   @ 0 Y j.n.n.n.n.n.l.k.k.k.h.k.z.z.x.v.v.v.v.x.z.h.N 0 @ X 9 ) J.E.E.T.T.T.E.E.J.-.o.",
"o.=.I.E.E.T.T.).T.E.(.H.} G D N m k 4 > O . o 0 D h.z.z.z.z.l.l.l.l.n.n.n.n.n.m.C.C.C.C.m.m...Z i # X 9 ) G.T.T.T.T.T.T.E.I.=.o.",
"o.=.I.E.).T.).R.E.E.).L. .| | | ..} b 4 : o O 5 A h.z.p.p.p.z.z.b.M.N.N.W.M.N.N.B.V.A.w.V.B.6.( a * @ 9 ) J.).E.).E.).).(.I.=.o.",
"o.=.K.).).E.E.E.E.E.E.R.!.B.w.A.}.M.G c < o O 5 A y.p.p.p.z.z.l.M.W.[.|.[.[.[.[.[.[.[.|.}.[.w.] d = o 2 ` J.E.E.T.).T.).E.I.=.o.",
"o.-.I.).).E.).).).E.E.^.{.{..XoXoXC.| v 3 @ @ 0 F j.z.x.z.x.l.m.Q.}.@X&X@X@X@X.X.X@X@X&X@X@X!.,.d = @ 2 ) J.).E.).).).).).I.=.o.",
"o.=.I.).).T.(.).E.E.E.R.|.XXoXoX8Xm.y.h 3 O % i Y ..n.m.n.m.M.Q.}.&X>X>X>X>X>X;X>X;X;X>X>X;X!.,.K = @ 2 ) I.E.E.).T.E.).).I.=.o.",
"o.$.F.I.I.I.I.K.I.I.I.L.P.B.}.C.v.z.e.x 3 % & a ' 6.N.Q.N.N.W.[.@X:X>X>X>X>X>X>X>X>X>X<X<X>X X,.T - @ 2 U 2.I.I.I.I.K.I.I.F.*.o.",
"o.@.#.=.*.=.*.=.=.*.*.&...| j.k.p.u.r.x g O & a _ 9.W.[.W.W.[.].|. X X@X@X X X X X+X@X;X>X>X|.7.L - o < K o.=.*.*.=.$.=.=.#.@.o.",
"o.#.;.3.3.3.3.3.;.H.;.>.F y.y.u.p.i.r.x g % & s [ q.[.[.|.[.].P.L.0.0.7.7.0.0.0.7.0.0.!. X&X~.1.T - @ < L *.3.3.3.3.3.3.3.<.#.o.",
"o.<./.-X*X*X%X%X%X=X&XM.j.y.t.t.i.i.r.x g ; & a ` 9.].[.|.[.P.8.%.Q T T T E R T T T _ ,.!.!.!.%.f - $ 2 [ |.=X%X%X%X%X*X-X/.;.o.",
"` 3.OX1X1X1X1X1XqXqX*XV.u.t.i.i.a.i.r.x 3 X $ s [ 9.W.[.[.W.q.%.R u = * - 8 - = = 8 u / 5.w.q.%.f - % 2 %.+XqX1X1X1X1XqX2XOX2.o.",
"^ ;.T.'.OX'.'.'.'.'.|.b.k.t.i.a.a.i.r.x g O - s [ 9.W.W.W.9.4.( f 2 O X . X   . + = r f [ 5.4._ a 9 * y ` Y._.'.'.'.'.'.'.R.-.o.",
"^ =.I.E.E.T.T.T.E.E.R.b.u.i.a.a.a.i.r.j 3 O * a [ 9.W.P.5. ._ Y b k 3 ; X     # 8 u f / / _ _ C f u 2 i ) 2.J.U.T.T.T.T.E.K.-.o.",
"O.=.I.E.T.T.E.T.T.(.R.b.u.i.i.a.d.i.r.x g X * d { q.w.8.] U a b h j j g ; X # q d _ _ _ U f a u f L i i _ ;.D.G.U.T.E.E.E.I.=.^ ",
"O.=.I.(.(.E.(.T.(.(.Y.b.u.p.i.a.i.i.r.j 3 ; * d [ 9.9.%.R y 2 g x e.S j ; O = u _ :.:.] f r - 1 C _ V M ) $.-.D.K.U.^.).E.I.=.o.",
"O.=.K.(.^.T.(.T.T.T.L.>.h.u.t.i.i.t.e.j 3 O % u _ :.4.] a - : g x e.e.x 3 O $ u / 4.4.] f - o 1 U { Z M ) #.=.2.F.I.U.T.T.I.=.o.",
"o.=.I.(.(.(.T.T.T.K.H...F e.e.e.e.e.S h ; X $ r f / _ f u < > g A S S h 3 O $ r f _ ( U u : @ 6 (  .Z M ) @.#.=.3.G.K.U.T.I.=.o.",
"o.=.I.(.(.(.T.U.J.H.3.' F x S F S A m g : o . $ t u a u 2 2 4 g m A A k > X . = t a s a y , , M { X.Z M ` +.#.#.-.<.D.K.U.K.=.o.",
"O.#.F.I.K.I.J.3.=.#.O./ V m m m m b k 4 : . . . # * * 1 2 6 k c m m l 4 : . . . $ $ * < 2 , 6 M  .( Z M E ^ ` ~ ` O.#.-.D.S.$.o.",
"O.@.#.=.=.=.@.o.I I P d n z z v b k 6 , : o . . . . o % 4 6 c b b l 6 4 % o . . . . O : , 6 i b V V b i f P P P P P W Q o.O.@.o.",
"^ #.<.3.3.3.<.$.o.) I K C V V Z Z M 6 , , : % o O o O > 6 6 b b b k 6 6 > % % O o O : > , 6 l b l k l M R Q E E T P Q ` $.-.#.o.",
"o.2./.%X*X%XOX|.L.8.,.&.' ( ]  .X.] M 4 4 4 6 , , , , , 6 b k b b b k 6 6 , , , , , , 6 4 6 c b v v c C +.1.7.&.,.,.5.L./.R.-.o.",
"o.2.OX1XqX1X-X+X~.H.8.7.,.{ X.4.9.X.M 6 6 6 6 6 6 6 6 6 k k b b b k b k 6 , 6 6 6 i k 6 6 6 c c c c c C :.8.8.8.3.8.L.~.+X X;.o.",
"o.-.T.OXOX'.^.Y.J.3.<.&.%.X.5.9.w. .V 6 k v c v k k 6 6 c b n k c b c i 6 6 k b c v v c 6 6 k c v c c V [ $.&.-.-.<.3.L.R.Y.-.o.",
"o.*.K.E.E.E.T.I.H.D.2.$.{ ]  .X.X.] M 6 k b v v b b k 6 k c k b c c c c k 6 6 b v v v c 6 6 c c v c v B ) @.@.$.-.2.D.J.U.J.=.o.",
"o.=.I.E.R.E.E.T.I.I.J.&.Z V V Z V M c 6 k l b k c k k k k k b b b c b k 6 k n v b b v c k k c v c c c B ) +.#.-.2.F.J.U.T.J.=.o.",
"o.-.I.E.E.E.E.T.T.U.I.;.Y b b b b b 6 6 b M b b b n k k b m b b b b b b 6 k b b b b b v 6 i v b m m b V ` #.*.;.F.I.T.E.T.K.=.o.",
"o.=.K.E.E.E.E.T.E.T.U.8.} G N N N m k k N N N N N N c k M N N N N N N m k k N N N N N m c k m N N N N Z ` @.$.2.G.U.^.E.).I.=.o.",
"o.-.I.E.E.T.E.E.E.E.E.8.| H N H G N n k N G G G G N k n N G G N G G G N n k N G G G G N c c N G D D D Y _ +.=.2.K.T.T.).).I.=.o."
};
