/* XPM */
static char *_12317483ccf4f059aeb6168efc59858tYXbSDk1uqhakqiE[] = {
/* columns rows colors chars-per-pixel */
"64 64 174 2 ",
"   c black",
".  c #150B0C",
"X  c #1A0E0F",
"o  c #141617",
"O  c #1C1111",
"+  c #17181A",
"@  c #2C1716",
"#  c #241C1D",
"$  c #311B1A",
"%  c #1C1E20",
"&  c #27282A",
"*  c #2C2C2E",
"=  c #372929",
"-  c #2F2F31",
";  c #2F3031",
":  c #343436",
">  c #3B3B3C",
",  c #45231F",
"<  c #442421",
"1  c #482623",
"2  c #4D2926",
"3  c #462A28",
"4  c #522B26",
"5  c #582D27",
"6  c #532D29",
"7  c #592E29",
"8  c #4C302E",
"9  c #5D322D",
"0  c #4D373C",
"q  c #433B3C",
"w  c #563637",
"e  c #60342F",
"r  c #623530",
"t  c #693732",
"y  c #663934",
"u  c #6C3A35",
"i  c #703C37",
"p  c #783E37",
"a  c #723D38",
"s  c #71413D",
"d  c #79423C",
"f  c #3F3F41",
"g  c #323A4C",
"h  c #353E50",
"j  c #503B41",
"k  c #5D3E41",
"l  c #623F41",
"z  c #3F4142",
"x  c #374153",
"c  c #394356",
"v  c #3D475B",
"b  c #3E495E",
"n  c #3F4A60",
"m  c #434545",
"M  c #4D4D4E",
"N  c #5C4246",
"B  c #5F4348",
"V  c #4E4E5F",
"C  c #5B4953",
"Z  c #555657",
"A  c #5C5C5C",
"S  c #644243",
"D  c #6C4945",
"F  c #694648",
"G  c #6D4A4E",
"H  c #754E4A",
"J  c #72514D",
"K  c #79514C",
"L  c #6E4C50",
"P  c #734F52",
"I  c #6F5457",
"U  c #765253",
"Y  c #7C5653",
"T  c #7E5855",
"R  c #735A5F",
"E  c #424D63",
"W  c #4F4F60",
"Q  c #445066",
"!  c #465269",
"~  c #4A566D",
"^  c #4D596F",
"/  c #525263",
"(  c #515468",
")  c #5F5C6A",
"_  c #4A5770",
"`  c #4C5972",
"'  c #515E75",
"]  c #525F79",
"[  c #665D6E",
"{  c #546076",
"}  c #5D6075",
"|  c #55627B",
" . c #5A667B",
".. c #67676C",
"X. c #616070",
"o. c #636379",
"O. c #737373",
"+. c #787979",
"@. c #82463F",
"#. c #824740",
"$. c #8C4C45",
"%. c #904F47",
"&. c #9C554D",
"*. c #885A5C",
"=. c #915F61",
"-. c #847775",
";. c #8C7D7B",
":. c #937F7C",
">. c #566481",
",. c #5A6782",
"<. c #5C6984",
"1. c #5D6C8B",
"2. c #646B83",
"3. c #6C6D85",
"4. c #646F8C",
"5. c #62718E",
"6. c #6B758D",
"7. c #787589",
"8. c #647492",
"9. c #687795",
"0. c #6C7B96",
"q. c #697898",
"w. c #6A7A9B",
"e. c #6C7C9C",
"r. c #6E7E9E",
"t. c #727C95",
"y. c #6F7FA0",
"u. c #76839C",
"i. c #7C869B",
"p. c #79859F",
"a. c #6F80A1",
"s. c #7182A2",
"d. c #7A87A1",
"f. c #7D8AA4",
"g. c #7E8CA9",
"h. c #848485",
"j. c #87858A",
"k. c #8C8C8D",
"l. c #998D8B",
"z. c #898894",
"x. c #908D9D",
"c. c #8F9090",
"v. c #939493",
"b. c #9E9492",
"n. c #929699",
"m. c #9B9B9B",
"M. c #A09594",
"N. c #848FA6",
"B. c #818EAA",
"V. c #8590A7",
"C. c #8794AF",
"Z. c #8895AD",
"A. c #8895AF",
"S. c #8F99AD",
"D. c #919BAF",
"F. c #8996B0",
"G. c #919DB5",
"H. c #919DB6",
"J. c #9DA0A0",
"K. c #98A1B2",
"L. c #9AA6BD",
"P. c #9CA8BF",
"I. c #A2A2A2",
"U. c #AEAEAE",
"Y. c #B0B0AF",
"T. c #B2B2B2",
"R. c #B9BABA",
"E. c #9CA9C0",
"W. c #A1ACC1",
"Q. c #C5C5C5",
"!. c #C9CACB",
"~. c #D6D6D6",
"^. c #E2E2E2",
"/. c #F4F4F4",
/* pixels */
"Q Q E v x g g g g g g g g g g g g g g g g g g g g g g g g g g c b b b b c g g g g g g g g g g g g g g g g g g g g g g g g g g g ",
"Q E E b v x x x x g x g x g g x h x h h h h h x h h x g c g x v b E E b v x g x g x x g g x x x g x x g g x x g g x x g x g g x ",
"Q E E E b b b v v v v v v v v v v v v v v v v v v b v v v v b b E E E E b v b v v v v v b v v v v v v v b v v v b v b v v v v v ",
"E E Q Q ! ! ~ ~ ~ ~ ~ ~ ~ ~ ~ ^ ~ ~ _ ~ ~ ~ ~ ~ ~ ~ ~ ! ~ ~ ~ ! Q Q Q Q ! ~ ~ ~ ~ ~ ~ ~ ~ ~ ~ ~ ~ ~ ~ ~ ~ ~ ~ ~ ~ ~ ~ ~ ~ ~ ^ ~ ",
"E Q ! _ ` >. .,.,.,.,.,.,.,.,.,.,.,.,.<.<.,.,.>.,.,.>.,.,.,. .` ~ ! ! ~ { | ,.,.,.<.,.<.,.,.,.>.,.,.,.,.,.,.,.,.,.,.,.>.,.,. .,.",
"E Q ~ ` ,.5.9.9.9.9.9.8.9.9.9.9.9.8.9.8.9.8.8.8.9.9.9.9.9.9.5.,.' ~ ~ ` ,.5.9.9.9.8.9.8.8.9.9.8.9.9.9.9.9.8.9.8.8.q.8.9.9.8.9.9.",
"E Q ~ | 1.9.a.a.a.e.e.e.e.e.e.e.e.e.e.e.e.e.w.a.e.e.e.a.a.a.w.1.] ~ ~ | <.w.e.a.y.e.w.y.e.e.w.y.e.e.e.e.e.e.e.e.w.e.e.y.y.s.e.u.",
"n Q ~ | 5.e.s.s.a.e.w.w.w.w.w.w.w.w.w.w.w.w.e.e.w.e.u.s.d.d.y.w.1. . .1.0.s.s.a.a.e.w.w.w.w.w.a.e.w.w.9.e.w.w.w.w.e.w.y.s.s.s.a.",
"E ! ~ | 5.w.y.y.w.9.8.8.8.8.8.8.8.8.8.8.8.8.8.8.8.w.f.B.C.B.B.f.f.p.p.f.g.f.s.a.e.q.8.8.8.8.8.8.8.8.8.8.8.8.8.8.8.9.8.y.y.y.a.s.",
"n E ~ | 1.w.e.w.8.5.1.1.1.1.1.1.1.1.1.1.1.1.1.1.1.9.g.A.C.F.F.A.A.A.A.A.A.V.d.w.8.5.1.1.1.1.1.1.1.1.1.1.1.1.1.1.1.1.1.8.8.y.y.a.",
"n E ! `  .5.8.8.1.,.>.>.>.>.>.>.,.,.,.,.>.>.>.>.>.5.f.F.C.A.F.A.A.A.A.A.A.g.e.5.1.,.>.>.>.>.>.,.>.>.>.>.>.>.>.>.| >.,.1.5.8.9.w.",
"v v E Q ` | | | ` ` _ _ _ ` >.1.<.<.1.<.1.,.,.] _ | u.A.A.A.C.F.A.A.A.A.A.p.<.{ >.,.>.>.| ,.,.,.1.1.>.] ` ` _ _ _ _ _ ] ] >.>.,.",
"x x v v E Q ! ! Q n n n n ` 9.p.p.p.p.p.u.p.p.6._ ' u.A.F.C.C.C.C.C.C.C.F.u.{ ^ 6.u.u.u.u.u.u.u.s.w.| ! Q E n n n E E E Q ! ! ~ ",
"x x x c c v v v v c c x h _ u.A.A.A.A.A.A.A.A.u.' { f.H.H.H.H.H.H.H.H.K.H.d.{ ' u.A.F.A.A.A.A.A.C.d.| E n v c c c c c v v v v v ",
"v v v b b v v b v v v V v ^ u.A.A.A.A.A.A.A.A.u.'  .A.P.W.W.E.E.P.P.W.W.W.A.| ' u.F.F.F.A.A.A.A.C.p.] E n v v v v v v v c V v v ",
"~ ~ |  . . .| ,.| |  .' ~  .u.A.A.A.A.A.A.A.A.u.' } V.P.L.L.L.L.L.L.L.L.P.V.| { u.F.F.F.A.A.A.A.A.u.' ! '  . .|  .,. .| | ] _ ! ",
"~ | t.g.f.f.f.f.f.f.g.0.|  .u.F.A.A.A.A.A.A.A.u.' ' 0.g.g.f.f.g.g.f.g.g.V.0.` ' u.F.F.C.C.F.C.F.A.u.' ' 0.f.f.f.f.f.f.f.f.t.| ! ",
"E ' u.F.F.A.A.A.A.F.F.u.` { d.K.H.H.H.H.H.H.H.f.{ _ 5.a.e.y.e.y.e.y.y.e.a.5.` { B.H.H.H.H.H.H.H.H.f.{ ' s.F.F.F.A.F.A.F.F.u.{ Q ",
"n { u.F.F.A.A.A.A.F.F.u.{  .V.W.E.E.W.E.P.P.W.A.| ^ 8.y.s.s.e.u.y.e.u.y.a.8._  .V.P.W.P.W.E.E.E.P.A.} ' u.F.A.A.A.A.A.F.F.u.{ n ",
"E { u.A.F.A.A.A.A.F.F.u.{ { V.L.E.L.L.L.L.P.P.N.| _ 8.y.s.e.a.e.e.a.e.a.a.5.^ | V.P.L.L.L.L.L.L.L.V.| ' u.F.F.A.A.A.A.F.F.u.| n ",
"E ' u.A.A.A.A.A.A.A.A.u.{ ` e.B.g.g.f.g.B.B.g.0.' ` 5.u.s.e.y.y.a.y.y.a.y.8._ ' t.g.g.g.g.g.f.g.V.0.` { u.F.C.C.C.C.C.F.F.u.{ n ",
"E { f.K.H.H.H.H.K.K.H.f.{ _ 5.e.e.y.a.e.u.e.e.8.` ` 8.s.s.a.a.a.a.a.y.s.a.8.` ` 6.e.a.e.e.y.y.y.a.5.~ { d.K.K.H.H.H.H.K.H.f. .n ",
"E  .A.P.W.E.E.E.P.P.P.A. ._ 8.y.a.e.y.y.u.e.r.8.' ` q.s.a.s.a.s.s.s.s.a.s.9.` ` 8.a.a.e.e.u.a.e.a.5.~  .F.E.W.W.P.W.P.W.P.A. .n ",
"E | N.P.P.L.L.L.L.L.P.V. ._ 8.a.y.s.y.a.y.s.s.5./ V ] 2.3.2.3.2.3.2.3.3.2.} V ( 4.s.s.s.y.s.y.s.a.8.`  .V.L.L.L.L.L.L.L.P.N. .n ",
"E ' 0.g.g.g.g.g.f.g.g.w.' ` 8.a.a.s.s.a.s.s.s.4.C 0 0 j N B B B B B B N j 0 0 C 6.s.a.s.s.s.s.s.a.8.` ' 0.g.f.f.g.g.f.g.g.0.` Q ",
"E ^ 5.s.y.e.e.e.a.a.e.4.( W o.3.3.2.2.2.2.3.3.[ l 4 , < 6 7 7 7 7 7 7 2 < < 6 y [ 3.3.2.2.2.2.3.3.o.W ~ 5.a.a.a.e.a.e.e.u.8.` E ",
"E ` 8.e.y.y.u.e.a.a.s.3.C w N S S k j j k B B k 9 6 < < 6 7 9 7 7 7 9 6 , , 6 w k N N N 0 j N N N N w C 3.a.a.a.a.e.a.a.s.8.` Q ",
"E ` 8.s.a.y.y.y.a.a.a.3.N 7 7 7 7 4 < < 7 7 9 9 9 7 2 2 7 9 9 9 9 9 9 7 2 2 9 9 9 9 9 7 1 , 4 7 9 5 7 B 3.a.a.a.a.a.a.a.u.8.` b ",
"E ' 8.s.s.e.u.y.a.s.s.3.N 7 7 7 7 6 < 1 9 t y t u r 9 7 r y y t y y y r 7 9 r u t t t e 1 , 4 9 5 9 5 N 3.a.a.a.a.a.u.s.a.8.` E ",
"E ~ <.8.5.9.8.5.8.8.8.o.N 9 7 9 9 7 3 6 r a i i u u r r u i i i i i i u r 9 u u i u u r 2 2 7 9 9 9 9 N o.8.8.8.8.5.8.8.8.<._ E ",
"E ! ~ ` _ ` ` ^ _ _ _ / l t r t y r 7 9 t u u u u u 9 9 u i i i i i i u r r y u u i u y 9 9 r u t t t S / ` ` _ _ _ ` _ _ ~ ! Q ",
"E ~ {  . . . . . . . .X.I H H K Y H y 9 u u u i u u r 9 6 6 6 8 6 6 4 2 1 2 r i s u u u 9 9 t i u u u F )  . . . . . . . .{ ~ n ",
"E ' i.H.S.D.S.D.S.S.S.x.h.-.-.h.l.;.s 9 t u u u s u 9 2 $ O X X X X X . . @ 9 i i u u u 9 e u u u u u K z.H.D.S.S.S.S.S.D.i.' E ",
"E  .N.E.P.L.L.L.L.P.L.G.n.k.v.J.Y.b.J 9 t t s u u y 6 < + % & * - : > m m q 8 7 t u u u e e u u s t t Y x.E.P.L.P.L.P.E.P.N. .E ",
"E ' t.B.B.g.B.B.f.g.g.V.z.n.J.U.T.v.J 7 t u s u s 7 $ + : Z O.k.j.n.R.!.!.m.> @ 7 s s t r e u u u u u U 7.g.g.g.g.g.g.B.B.t.' E ",
"E _ 8.r.e.e.s.e.a.a.e.t.h.;.l.b.M.;.s e t s u t 9 < % ; I +.h.k.j.m.R.~.~.T...q 8 7 t y 9 r y u u u t G 3.y.a.y.e.e.a.e.y.5.` E ",
"E ' 5.r.a.e.s.e.e.e.a.6.R H $.*.T H s 7 t s t 5 $ # > A k.h.M * : : > Z +.m.R.m.q $ 7 y r r u u u i u G 3.s.y.e.r.r.r.r.y.8.` E ",
"E ` 8.s.s.e.e.s.a.a.s.3.F i u t t t 9 9 t s s 5 X o m O.I.h.&         o f j.^.!.> . 4 s r 9 y u u u u G 3.a.s.s.r.s.r.y.y.8.` E ",
"E _ 5.y.a.y.y.y.e.a.s.3.G t u u t r 9 r r s s 5 X o z +.I.h.*         o f h.^.!.z . 2 s r 9 u u u u u H 3.a.a.e.r.r.e.s.y.5.` E ",
"E ' 8.s.s.e.a.u.s.s.s.3.G i u u s s r 9 r s 7 3 @ * Z i.I.c.M * * - * > I k.~.Q...q 8 7 9 e u s K K i G 7.y.s.y.r.s.y.y.s.8.' E ",
"E ' 9.y.s.e.s.e.a.a.a.6.H r i u t s e r s 7 $ # > A h.I.Y.I.c.h.h.h.h.k.v.I.R.Q.Q.m.q @ 1 r y K :.:.K G 3.u.s.a.s.r.r.s.s.8.' E ",
"E ^ <.8.5.8.5.9.8.8.8.o.G u u u t r e e t 4 O + m O.b.T.Y.Y.Y.T.T.T.T.T.U.U.U.Q./.Q.j . , r t T M.b.Y F o.8.8.8.5.8.8.5.8.<.~ E ",
"E ! ~ ` ` ` ` _ _ ` ` / S u u u s s 5 r s 5 O + m O.m.Y.U.U.U.Y.T.T.T.T.Y.U.U.Q./.Q.z . , 9 u T M.M.T S W ` ` ` _ ' ^ _ ` ^ Q E ",
"E ! '  . . . . . . . .) F u i u t t e e y 5 O + m O.m.U.U.U.U.I.c.h.h.c.m.U.U.Q./.Q.z . , e t T b.M.Y S [ | o.]  . . . . .' ~ E ",
"E ' i.H.D.D.D.S.D.D.D.z.K u t u t y 9 y y 8 O + m O.m.U.U.U.U.c.M * & M c.Y.U.Q./.Q.m . , e t T M.b.K U z.F.H.S.S.S.D.G.D.i.| E ",
"E  .V.E.P.L.L.L.L.E.E.x.Y t u s s s 9 9 t 5 O + m O.m.U.U.U.T.h.*     * h.Y.U.Q.^.T.> . , e t T b.b.K U x.E.P.L.L.P.L.E.E.N. .E ",
"E ' t.g.B.g.N.f.g.g.C.7.J u u u t t 9 y u 6 O + m O.m.T.U.T.U.j.*     * h.Y.Y.T.Q.c.; . , r t T M.b.*.L 7.g.g.B.f.f.g.g.B.t.' E ",
"E ` 5.e.y.s.e.e.e.e.a.3.G u u u s t r 9 u 7 O + m O.m.U.U.U.T.h.*     * h.T.Y.U.U.i.* . , 9 t T M.M.T D 3.y.y.r.y.e.e.s.e.5.` E ",
"E ` 8.y.e.s.e.y.e.y.y.3.L u u u i y 9 r u 6 O + m O.m.Y.U.Y.T.h.*     * h.Y.Y.Y.U.h.* X , 9 t *.M.M.T D 3.s.y.e.a.e.e.e.s.9.` E ",
"E ` 8.y.s.y.u.y.y.y.y.7.G u u u u u r r u 6 O + m O.m.Y.U.U.Y.c.M & & M z.Y.Y.Y.T.h.* . < e t K :.:.H G 3.a.y.y.e.s.s.e.s.5.` E ",
"E _ 5.s.y.e.y.y.y.y.s.3.H r i u u y r 9 u 6 O + m O.m.U.U.U.Y.I.k.h.h.v.I.Y.Y.Y.T.h.- . < r u D K K s H 3.s.y.y.s.s.y.s.s.5.' E ",
"E ' 8.s.s.y.y.s.s.s.s.3.P i u u i u 9 r u 8 O + m O.m.T.T.Y.Y.Y.T.T.T.Y.Y.Y.Y.T.T.h.* . < r u u u t u L 3.a.a.u.s.e.s.y.s.8.` E ",
"E ' 8.s.y.e.e.u.y.s.s.3.L u u u u u r r u 6 O + m O.m.T.T.T.Y.T.T.T.T.T.Y.Y.Y.Y.R.h.* . < r u u u t i H 3.y.a.a.u.y.e.s.s.8.` E ",
"E ^ <.9.5.9.5.5.8.8.8.o.F u i u u t 9 r y 9 $ # > Z +.h.h.h.h.h.h.h.h.j.h.i.h.h.h...: @ 3 r t u u i t G o.8.8.8.8.5.8.8.8.<.^ E ",
"E Q ~ ` ` ` _ ' _ ` ` / l t t u u y 9 r u y 9 3 # + * * ; * * * - * : * * * * * * = 8 7 9 r u u i u i l / ` _ _ _ _ ` ` _ ^ E E ",
"E ! '  . . . . . . . .X.U H H K Y J y 9 y i i 9 $ O X X X X O X X X X X X X X X X $ 9 t r 9 y i u u u F [  .,. . . . . . .' ^ E ",
"E ' i.D.S.S.D.D.D.D.D.x.h.-.-.;.l.;.F 9 e u i t 9 2 1 1 2 6 6 6 6 6 6 3 1 1 2 9 6 6 u y 9 r y u u u u U j.H.F.S.G.S.D.D.D.i.' E ",
"E  .N.E.P.P.L.L.E.L.E.H.n.k.b.D.U.b.J 9 t u u i i u r r u i u i i u i u e e u i i i u u 9 r u u i u u U x.E.E.E.P.L.L.E.P.B. .E ",
"E ' 0.g.B.f.g.g.g.g.g.N.k.v.I.Y.Y.b.U 9 t u i u u u r r u i i i i i i u 9 e u u a i u u r r u u u u u P 7.B.g.g.f.g.g.B.g.t.' E ",
"E ` 8.y.s.e.r.r.e.e.y.t.7.;.l.b.M.;.D 9 t u u i u y r 9 y u u u u u u y e e y u u u u u 9 r y u u u u L 3.y.y.y.e.e.s.e.e.8.^ E ",
"E ` 5.y.y.r.r.r.y.y.r.3.R J K Y Y H y 9 t u i i u e e e t u u u u u i y e 9 u u i i u t r 9 t u u u u L 3.s.y.y.r.r.r.r.s.5.` E ",
"E ' 8.y.s.e.r.r.y.e.u.7.J d d d d u e e a p p D D d r e i d d d d d d i e r i d p D p a r y a p d p p U 3.y.y.y.r.r.r.s.y.8.` E ",
"E ' 5.s.y.y.p.e.e.a.r.7.*.@.$.%.%.#.y y @.%.%.%.%.@.u t K %.%.$.%.%.%.@.y u #.%.%.%.%.#.y y #.%.%.%.%.*.7.y.s.s.r.r.r.s.s.5.' E ",
"E ` 9.e.y.y.y.y.y.a.u.7.=.&.&.&.&.$.u u %.&.&.&.&.$.u t $.&.&.&.&.&.&.$.u u $.&.&.&.&.$.u t $.&.&.&.&.=.7.y.u.e.s.r.y.e.s.8.` E "
};
