/* XPM */
static char *d5f41b14082f432e838b07872420da9983sEFeFZ9jXkPRLw[] = {
/* columns rows colors chars-per-pixel */
"64 64 158 2 ",
"   c #3F201B",
".  c #40211E",
"X  c #432421",
"o  c #442827",
"O  c #4D2A26",
"+  c #522B27",
"@  c #542D29",
"#  c #582E2A",
"$  c #5D322D",
"%  c #432F31",
"&  c #493437",
"*  c #4A363A",
"=  c #4C393F",
"-  c #60342F",
";  c #653631",
":  c #683732",
">  c #663934",
",  c #6C3A35",
"<  c #743D37",
"1  c #783E37",
"2  c #723D38",
"3  c #71423D",
"4  c #79423C",
"5  c #323A4C",
"6  c #353E50",
"7  c #374153",
"8  c #394356",
"9  c #3D475B",
"0  c #3E495E",
"q  c #3F4A60",
"w  c #4C424C",
"e  c #4A4C5D",
"r  c #654144",
"t  c #684546",
"y  c #6C4945",
"u  c #624649",
"i  c #6A474B",
"p  c #6C4A4E",
"a  c #744E4A",
"s  c #794F4A",
"d  c #73514D",
"f  c #7A514D",
"g  c #6E4C50",
"h  c #734F52",
"j  c #6C5355",
"k  c #755153",
"l  c #7C5653",
"z  c #7E5855",
"x  c #735A5F",
"c  c #424D63",
"v  c #445066",
"b  c #4D5266",
"n  c #465269",
"m  c #4A566D",
"M  c #4D596F",
"N  c #545464",
"B  c #5D5A6A",
"V  c #4A5770",
"C  c #4C5972",
"Z  c #515E75",
"A  c #5B5F75",
"S  c #525F79",
"D  c #546076",
"F  c #55627B",
"G  c #5A657B",
"H  c #5B687D",
"J  c #61606F",
"K  c #65647A",
"L  c #7C767D",
"P  c #82463F",
"I  c #824740",
"U  c #8C4C45",
"Y  c #904F47",
"T  c #9C554D",
"R  c #885A5C",
"E  c #915F61",
"W  c #847775",
"Q  c #857876",
"!  c #8C7D7B",
"~  c #937E7C",
"^  c #566481",
"/  c #5A6782",
"(  c #5C6984",
")  c #5D6C8B",
"_  c #646A82",
"`  c #6E6E85",
"'  c #616F8D",
"]  c #62718E",
"[  c #6B758C",
"{  c #717087",
"}  c #75748A",
"|  c #7A768B",
" . c #7A798D",
".. c #647492",
"X. c #687795",
"o. c #6C7A96",
"O. c #697898",
"+. c #6A7A9B",
"@. c #6D7C9A",
"#. c #6C7C9C",
"$. c #6D7D9C",
"%. c #6E7E9E",
"&. c #727C95",
"*. c #6F7FA0",
"=. c #807A81",
"-. c #76839C",
";. c #77849D",
":. c #7C869B",
">. c #79869F",
",. c #6F80A0",
"<. c #6F80A1",
"1. c #7182A2",
"2. c #7383A4",
"3. c #7686A5",
"4. c #7A87A1",
"5. c #7C88A1",
"6. c #7D8AA3",
"7. c #7F8CA7",
"8. c #7E8CA9",
"9. c #87818A",
"0. c #998D8B",
"q. c #878290",
"w. c #868B93",
"e. c #898E95",
"r. c #8C8A9A",
"t. c #908D9D",
"y. c #8F9090",
"u. c #939494",
"i. c #9E9392",
"p. c #90959A",
"a. c #A09594",
"s. c #848FA6",
"d. c #818EAA",
"f. c #8590A7",
"g. c #8C91A0",
"h. c #8694AF",
"j. c #8794AF",
"k. c #8895AD",
"l. c #8895AF",
"z. c #8F99AD",
"x. c #909BAF",
"c. c #8996B0",
"v. c #8A97B1",
"b. c #909CB5",
"n. c #919DB5",
"m. c #929EB7",
"M. c #9DA0A0",
"N. c #98A1B2",
"B. c #99A5BC",
"V. c #9AA6BD",
"C. c #9BA7BE",
"Z. c #9CA8BF",
"A. c #A1A3A2",
"S. c #ABAEAF",
"D. c #B0B3B3",
"F. c #9CA9C0",
"G. c #A0ABC0",
"H. c #A2ADC2",
/* pixels */
"v v c 9 7 5 5 5 5 5 5 5 5 5 5 5 5 5 5 5 5 5 5 5 5 5 5 5 5 5 5 7 9 c q 0 8 7 5 5 5 5 5 5 5 5 5 5 5 5 5 5 5 5 5 5 5 5 5 5 5 5 5 5 ",
"v c c 0 9 7 7 5 7 7 5 7 7 5 7 7 7 5 6 6 6 6 6 6 6 6 6 6 6 6 7 9 0 0 q 0 9 7 5 7 6 6 5 7 7 5 7 5 6 6 5 6 5 7 7 5 5 7 5 7 7 5 6 7 ",
"v c c c 0 0 9 9 9 9 9 9 9 9 9 9 9 9 0 9 9 0 9 9 9 9 9 9 9 9 9 e v q v q 0 0 9 9 9 9 9 9 9 9 9 9 9 9 9 9 9 9 9 9 9 9 9 9 9 9 9 9 ",
"c c v v n m m m n m m m m m m m m m m m m m m m m m m m m m m n n v v n n m n m m m m C M m m M m m m M m m C m M m m m m m m m ",
"c v n V C ^ / / / / ( / / H / / / / ( / / / / / ( / / / / / F Z M n n M Z F / / / / / / / / / / ( / / / / / / / / / ( ( ^ H / ^ ",
"c v m C / ] ..O.O.O.....X.X.O...O.....O...O.....X.X.X.X.X.X.] / C m n C / ] O.O.O...O...X...O...O.....O...O.O.....O.......O.O...",
"c v m F ) O.,.,.#.@.#.#.#.#.@.@.#.#.#.+.#.#.+.1.@.#.#.#.#.,.O.) S m m F ) o.*.,.,.#.#.#.#.#.+.+.#.#.#.#.@.#.#.#.#.#.#.#.#.#.1.-.",
"q v m F ] @.-.,.,.#.+.+.+.+.+.+.+.O.#.+.+.+.+.O.O.@.2.3.3.6.1.X.) G H ) X.,.,.,.,.#.+.+.+.+.#.#.X.#.O.+.@.+.+.+.O.#.#.#.2.,.3.,.",
"c n m F ..+.,.,.#.............O...................O.3.d.f.f.d.6.6.>.>.6.7.8.3.,.@...................................O.#.*.,.2.2.",
"q c m F ) +.#.O.....) ) ) ) ) ) ) ) ) ) ) ) ) ) ) X.d.l.l.l.v.l.l.l.l.l.l.7.1.@...] ) ) ) ) ) ) ) ) ) ) ) ) ) ) ) ) ) ..O.+.,.,.",
"q c n C H ' ..) ) ^ ^ ^ ^ ^ ^ ^ H ^ / ^ ^ ^ ^ ^ ^ ] 6.l.v.l.l.l.l.l.l.l.l.7.o.] ) ^ ^ ^ ^ ^ ^ ^ ^ ^ ^ ^ ^ ^ ^ ^ ^ ^ ^ ) ' ....+.",
"9 9 c n C F ^ F Z V V V V C ^ ^ ( ) ) ( ) / ^ F V F 3.l.l.l.l.l.l.l.l.l.l.6.( F / ( ^ ^ G / / / ) ) ^ F C V V V V V C Z S F / / ",
"7 7 9 0 q n n n c q q q c V X.4.>.>.>.>.-.>.-.[ C Z -.l.v.l.l.l.j.j.l.l.l.>.D C [ -.-.-.-.-.;.>.2.O.F n c c c q q c c c n n n n ",
"6 7 7 7 8 9 q 9 9 9 9 8 8 m >.j.l.l.l.l.l.l.v.-.Z D :.b.m.m.b.b.b.b.b.b.N.>.D Z -.v.v.j.l.l.l.l.h.4.F q q 9 8 8 8 8 8 9 9 9 0 9 ",
"9 9 0 9 9 9 9 9 9 9 9 9 e M -.l.l.l.l.l.l.l.l.;.Z G l.H.H.F.F.F.Z.Z.H.H.H.j.F Z -.v.v.l.l.l.l.l.j.4.F q q 9 9 9 9 9 9 9 9 e 9 9 ",
"m m F H G G G F G G G D n F -.l.l.l.l.l.l.l.l.-.Z G s.Z.B.B.B.B.V.V.V.B.B.f.D D -.l.l.v.l.l.l.l.j.-.S n Z G H F G / F G F S V n ",
"n F o.7.7.6.6.6.6.6.7.o.F G ;.c.l.l.l.l.l.l.l.-.Z Z o.8.8.8.8.8.8.8.3.8.8.o.Z Z -.v.v.j.v.j.j.l.j.-.Z Z @.6.6.7.6.6.6.7.7.-.D v ",
"c D -.v.j.l.l.l.l.v.v.-.Z Z 3.N.b.b.b.b.b.m.N.3.F V ] @.1.#.*.#.#.#.1.*.#...m D 6.b.b.b.b.b.b.b.b.7.Z Z ;.v.l.l.l.l.l.l.l.;.F q ",
"c D -.v.v.l.l.l.l.l.l.-.Z G t.H.H.F.H.F.H.F.F.g.G m ..*.#.1.#.-.#.1.#.*.1.] V G l.G.G.G.G.G.H.H.F.t.G Z ;.l.l.l.l.l.l.l.l.;.D 0 ",
"q F -.j.v.l.l.l.l.l.x.-.Z Z f.F.C.B.C.B.F.F.F.f.F V ..*.1.#.1.#.#.*.*.-.1...C F s.B.B.B.B.B.B.B.C.f.G Z ;.l.l.j.l.l.l.l.l.;.D v ",
"q Z -.v.v.j.j.j.l.l.v.>.Z Z o.d.8.8.8.8.8.8.8.o.Z C ..*.*.*.*.*.-.#.*.1.1...C Z &.d.8.8.8.8.8.8.8.@.C D ;.j.j.j.h.h.l.l.l.;.S q ",
"q F 6.N.b.b.b.b.b.N.b.6.F V ..#.#.#.#.,.#.,.,...C C ..1.1.*.1.*.<.2.*.1.1...C C ..#.*.#.#.#.#.,.,.] C D 6.m.m.m.b.m.m.N.N.5.F q ",
"q G g.H.H.Z.Z.Z.Z.Z.Z.l.G m ] *.1.#.,.#.#.#.#...V C ..1.1.1.*.*.1.*.1.1.1...C C ..*.*.#.*.*.*.*.,.] m G t.H.H.F.F.F.C.H.Z.j.H q ",
"q G f.Z.Z.B.B.Z.B.Z.Z.s.F C ..1.1.1.1.1.1.1.1.] b b A _ _ _ _ _ _ _ _ _ _ A e b ] 1.1.1.*.1.,.,.2...C F f.F.C.C.C.C.B.C.C.f.H q ",
"q Z @.8.8.8.6.8.8.8.8.@.Z C ..1.1.1.,.1.,.,.2._ w % & = = = = = = = = = = = % w _ 3.2.,.,.,.*.1.1...V Z @.8.8.8.8.8.8.8.8.O.C v ",
"n C ..,.,.1.#.,.#.,.#.] b e A _ _ _ _ _ _ _ ] B & . . . . . . . X   . . .   . & B ( _ _ _ _ _ _ _ G e b ] ,.,.@.<.@.+.,.<...C q ",
"n C ] ,.#.#.#.#.#.1.1._ w % * = = = = = = = = * o . . . . . . .     X . . . . o * = = = = = = = = * % w _ ,.,.,.,.,.@.,.<.] C v ",
"c C ..,.,.1.2.,.1.1.1._ =     . . . . . . . . . . X . X X . X . X . . . . X . . . . . . . . . .       = _ 1.<.,.,.,.-.,.<.] C v ",
"c V ..1.1.;.,.1.*.1.1._ =   . . . . . . . . . . . X X X X . X X . . X X X . X . . . . . . . . . . . . = K <.2.,.;.,.<.2.2...C v ",
"c C ( ....] ] ........G * . . X . X X . X . . X X X X X X X X o o O X X X X X X X X X X X . . X . . . = H ..........] ] ../ M v ",
"c v m V m V V V V V C e % . . . . X X . X X . X O O o X + # @ @ + @ @ + X o O O X . . X . X X . X . . % e C V m V V C m m m v q ",
"c m D H G H H G G H H N * X X O o X X X X X o O # @ o X @ # $ # # # # @ o o @ # O o X X X X X O X X X & N H H H G G H G H D m v ",
"c G :.x.x.x.z.x.z.b.z.:.u + + @ @ + o o O @ @ + # + o o @ $ $ $ $ # # @ o X @ # + @ @ O o o + @ @ + + u  .b.x.x.x.z.x.x.x.:.D c ",
"c F s.F.B.B.B.C.V.C.F.r.p # # # # $ . o # - - $ - # O o @ $ $ - - - $ $ O O # - $ $ ; @ o X @ # # # @ g r.F.F.B.C.B.C.Z.C.f.G c ",
"c Z o.d.d.8.d.8.7.7.8. .u $ # $ # @ . O - , : , : ; $ $ > > , : > , , ; # $ ; > > , , $ O X + @ # @ # u } 8.8.8.8.d.8.8.8.@.Z c ",
"c m ..*.1.#.%.%.@.,.<.K r $ $ $ # # + . - 3 < , 3 : - ; > , , < , , , > - - , , , 2 , ; + O # ; - ; $ u ` *.*.*.*.#.#.*.-.] M c ",
"c C ..#.#.%.%.%.#.,.,.` y : : - , $ # # > , , , , : - - , , , , , 2 , > - - > , , , 2 ; $ @ ; > , : : i ` *.*.*.#.#.#.#.*...V c ",
"c C ..1.1.1.%.%.;.,.,.[ x d d f R a > - : , , 3 , , - - ; , , , , , , , - - , , 2 , , , ; ; > , , , , g ` *.1.*.1.*.1.*.,...C c ",
"c C ] 1.1.#.1.#.1.#.,.o.Q Q W ! 0.~ y - : < , , , , - - , , , , 2 , , , - - , , , , , , $ ; > 2 , , < g { *.*.*.1.#.*.2.-...C c ",
"c Z ] 2.1.#.1.1.*.,.,.;.w.y.0.A.S.i.d # ; , , , 3 : - - , 3 , , , , , > - - , , , , , , ; $ > 2 , , , g ` *.1.*.1.1.,.,.,...C c ",
"c Z ..2.1.1.#.1.#.1.1.;.w.u.x.S.D.i.d $ : , , , < : $ - , 3 , , 2 , 2 > - - , , , , , , - - > , < , , g ` 1.1.#.1.#.#.3.2...Z c ",
"c m ( ..] ] ..] ..] ..[ L ! 0.i.i.! y $ : , , 3 , : $ - : , , , , , , > - - > , , 2 , > - - > , , , , i K ............] ..( m c ",
"c n m C V m V V m C C N j s z R l a > $ : , , , 3 : - - : , 3 , 2 , , , - - , , , 2 , , - - , , : : , r N C C V V m V V C m c c ",
"c n Z H H H H H H H H B r , : : , : $ - , , , < , > - - , , : , , , , , - - , , , , , , ; - > 3 f s 3 t B H H F G H H H G F m c ",
"c A :.m.n.x.x.x.x.c.b.q.d : , : , : - - : , 3 , : : - - , 3 , , , 2 , > - - > , , 2 , > - $ : s ~ ~ s k q.b.z.x.z.x.z.x.x.w.S c ",
"c F d.F.C.C.V.V.B.F.F.t.l , , : 3 : - - , , , , 3 : - - : , , , , , 2 > - - > 2 , , 2 > ; $ : z a.a.R k r.F.F.B.B.Z.B.F.Z.f.G q ",
"c Z o.d.d.d.s.s.d.8.d. .d , , 4 , : - - : , , < , , - - : 3 , , , 2 , , - - > , , , , , - $ > z a.i.f a | 8.8.h.8.8.8.8.d.@.Z c ",
"c V ] #.1.#.#.O.#.,.,.` p , : : 3 ; - - , , , , , , - - : , : 3 , , , > - - , , , 2 , > - $ : z i.i.z i ` 1.#.#.#.#.#.*.*.] C c ",
"c C ..#.%.%.%.%.%.*.1.` p , , < , : $ - : 3 < , , , - - : 3 : , , , , , - - > , , , , : - - : z a.i.l p ` ,.#.#.#.1.#.1.,...V c ",
"c C ] 1.*.%.%.%.%.1.1.` p , , , 3 : - - : , , , , : - - : 3 , , , 2 , : - - , , 2 , 2 : - $ : z i.a.f p ` ,.,.,.*.;.#.1.*...C c ",
"c C ..>.%.%.%.%.%.*.1.` p : , , 3 : - - : : , , 3 : - - , , , < , 2 , > - - : 2 , , , : - $ : z a.i.R y ` ,.,.,.*.*.#.,.-...C v ",
"c C ..1.2.%.2.*.2.*.1.{ a < , , , > - - : 3 3 , : : - - : , , , , , 2 > - - > , 2 , < : - $ $ l a.a.l i ` ,.1.,.*.*.1.1.*...C c ",
"c C ..1.*.*.*.*.*.%.1.` h , , , , : ; - : , , , , : - - > 3 , , , , , , - - , , : , 2 > $ - ; R a.a.R t ` 1.1.,.#.1.#.2.1...C c ",
"c V ( ..] ..] ........K i , , , , : $ - , , 2 , , , - - : : , , , , , , - - > 2 2 , 2 > ; $ : f ~ ~ s i K ....] ......] ../ C c ",
"c n m C C m V m V V V N r ; , , , : $ $ : 2 , 2 3 : - - : , , < 3 , , , - - , , , , : : $ ; , y f f 3 r N V V C V C V V C m n c ",
"c m D H H H H H H H H J h s a s z d > $ : , , , , : - - , 3 , , 2 , , > - - > , , 2 , , ; $ > , , , , t B G G H H H H H H Z m c ",
"c Z :.x.x.x.x.b.x.z.x.t.=.Q Q ! 0.! y $ - 3 , 2 , , $ ; : , , , , , , > - - , , , 2 , , ; $ ; 2 , , ; k q.b.z.x.x.z.z.z.b.:.A q ",
"c G f.B.V.C.C.B.C.B.B.b.p.u.i.x.S.i.d $ : , , , , : - $ , , 2 , , , 2 > - - > , , , , > $ ; > , , , : l t.F.F.B.B.B.B.F.F.s.F c ",
"c Z @.d.s.8.d.8.8.d.8.s.y.u.A.S.D.i.p $ : , , 2 , , $ ; : , 2 , , , , , - - , , 2 , 2 : - - > , < , , h | 8.8.8.s.f.8.h.8.&.Z c ",
"c C ..*.#.#.#.#.#.*.*.&.L ! 0.i.i.! y $ : , , , , > ; $ > 2 , , , 2 , > - - > 2 , : 2 : - - > 2 , , , g ` ,.*.2.#.#.#.#.*...C c ",
"c C ..-.#.,.#.1.@.,.1.{ x a f l z d : $ : , , , , : $ - : , , , , , 2 > - $ > , , , , : $ ; > , , , : p ` ,.,.#.#.#.#.#.*.] V c ",
"c C ..,.1.1.1.#.,.1.,.` k 4 4 4 4 , $ : 3 4 4 4 d 2 : - 2 1 4 4 4 4 3 2 - ; 2 4 1 a 4 < ; ; < 4 4 4 1 k { *.,.#.1.,.2.1.,...C c ",
"c V ..-.1.#.#.1.@.1.2.} E P P Y Y I : : P Y Y Y Y I ; : f Y Y Y Y Y Y I > > I Y Y Y Y I ; > I Y Y Y Y R } *.2.#.1.#.#.1.;...C c ",
"c V ..*.1.#.1.#.,.,.,.L E T T T T Y : : Y T T T T U , : U T T T T T T U : , U T T T T Y : : U T T T T E | ,.,.1.#.1.*.,.,...C c "
};
