/* XPM */
static char *d6438da760f54dfdf4b80cb07c07cb4dyBuhFnSh14uzyLUL[] = {
/* columns rows colors chars-per-pixel */
"64 64 183 2 ",
"   c #4D3E46",
".  c #4F3F47",
"X  c #544147",
"o  c #5D4549",
"O  c #684A4A",
"+  c #714F4B",
"@  c #77514C",
"#  c #78524C",
"$  c #78514C",
"%  c #714E4B",
"&  c #5D4548",
"*  c #534147",
"=  c #4E3F46",
"-  c #4E3E46",
";  c #504047",
":  c #514047",
">  c #564248",
",  c #5F4649",
"<  c #694B4A",
"1  c #724F4B",
"2  c #524047",
"3  c #5B4448",
"4  c #624849",
"5  c #6A4B4A",
"6  c #734F4C",
"7  c #6C4C4B",
"8  c #64494A",
"9  c #5D464A",
"0  c #584349",
"q  c #554248",
"w  c #534148",
"e  c #674A4A",
"r  c #6E4D4B",
"t  c #744F4C",
"y  c #75504C",
"u  c #714F4C",
"i  c #6D4D4D",
"p  c #684B4D",
"a  c #63494C",
"s  c #5E464B",
"d  c #544148",
"f  c #503F47",
"g  c #77514D",
"h  c #78524E",
"j  c #78524F",
"k  c #765250",
"l  c #714F4F",
"z  c #4F3F46",
"x  c #76514C",
"c  c #79524D",
"v  c #7D5550",
"b  c #815752",
"n  c #835854",
"m  c #7D5553",
"M  c #715050",
"N  c #64494C",
"B  c #7A534E",
"V  c #815650",
"C  c #875A53",
"Z  c #895B55",
"A  c #845955",
"S  c #775251",
"D  c #674B4D",
"F  c #594449",
"G  c #7B534E",
"H  c #815751",
"J  c #885A54",
"K  c #8C5C56",
"L  c #865A55",
"P  c #785352",
"I  c #5A4449",
"U  c #815651",
"Y  c #8B5C56",
"T  c #875A54",
"R  c #8A5B55",
"E  c #855955",
"W  c #76504B",
"Q  c #7A524D",
"!  c #805650",
"~  c #875953",
"^  c #78524D",
"/  c #7D544F",
"(  c #835751",
")  c #8A5C56",
"_  c #7E554F",
"`  c #8C5C57",
"'  c #775352",
"]  c #7F5550",
"[  c #835852",
"{  c #865954",
"}  c #8B5C55",
"|  c #8E5D57",
" . c #8D5D57",
".. c #865A56",
"X. c #8E5E57",
"o. c #8C5D57",
"O. c #765251",
"+. c #664A4D",
"@. c #734F4A",
"#. c #744F4B",
"$. c #8D5D56",
"%. c #7F5652",
"&. c #724F4F",
"*. c #64494B",
"=. c #6B4B46",
"-. c #6C4B47",
";. c #6F4D48",
":. c #805651",
">. c #835752",
",. c #845852",
"<. c #75504D",
"1. c #6A4B4B",
"2. c #624642",
"3. c #644743",
"4. c #694945",
"5. c #704E49",
"6. c #825751",
"7. c #875954",
"8. c #885A55",
"9. c #7A534D",
"0. c #714E49",
"q. c #694A47",
"w. c #614646",
"e. c #5A4447",
"r. c #554147",
"t. c #5B423F",
"y. c #5D4340",
"u. c #634643",
"i. c #6D4C48",
"p. c #664844",
"a. c #5E4442",
"s. c #594243",
"d. c #554144",
"f. c #534146",
"g. c #56403E",
"h. c #58413F",
"j. c #684946",
"k. c #74504C",
"l. c #7F5651",
"z. c #855953",
"x. c #865953",
"c. c #694A46",
"v. c #574141",
"b. c #544042",
"n. c #524044",
"m. c #524046",
"M. c #533F40",
"N. c #554041",
"B. c #5A4343",
"V. c #624746",
"C. c #6C4C49",
"Z. c #6C4B49",
"A. c #624645",
"S. c #594242",
"D. c #523F43",
"F. c #513F44",
"G. c #514046",
"H. c #534043",
"J. c #564144",
"K. c #5C4445",
"L. c #6D4C47",
"P. c #6B4B47",
"I. c #624745",
"U. c #5C4444",
"Y. c #513F45",
"T. c #544145",
"R. c #574244",
"E. c #5B4343",
"W. c #604541",
"Q. c #614541",
"!. c #544044",
"~. c #564142",
"^. c #59413E",
"/. c #5A413E",
"(. c #564141",
"). c #504048",
"_. c #534044",
"`. c #544041",
"'. c #55403E",
"]. c #563F3D",
"[. c #563F3C",
"{. c #514048",
"}. c white",
/* pixels */
"  . X o O + @ # $ @ @ @ @ @ @ @ @ @ @ @ @ @ @ @ @ @ @ @ @ @ @ @ @ @ @ @ @ @ @ @ @ @ @ @ @ @ @ @ @ @ @ $ # @ % O & * = - . ; : : ",
". : > , < 1 @ # $ @ @ @ @ @ @ @ @ @ @ @ @ @ @ @ @ @ @ @ @ @ @ @ @ @ @ @ @ @ @ @ @ @ @ @ @ @ @ @ @ @ @ $ # @ 1 < , > 2 ; ; : : : ",
"X > 3 4 5 1 @ # $ @ @ @ @ @ @ @ @ @ @ @ @ @ @ @ @ @ @ @ @ @ @ @ @ @ @ @ @ @ @ @ @ @ @ @ @ @ @ @ @ @ @ $ $ @ 6 7 8 9 0 q w 2 : : ",
"o , 4 e r t @ $ $ @ @ @ @ @ @ @ @ @ @ @ @ @ @ @ @ @ @ @ @ @ @ @ @ @ @ @ @ @ @ @ @ @ @ @ @ @ @ @ @ @ @ @ $ @ y u i p a s 0 d : f ",
"O < 5 r + y @ $ @ @ @ @ @ @ @ @ @ @ @ @ @ @ @ @ @ @ @ @ @ @ @ @ @ @ @ @ @ @ @ @ @ @ @ @ @ @ @ @ @ @ @ @ @ @ g h j k l p s > : z ",
"+ 1 1 t y x @ @ @ @ @ @ @ @ @ @ @ @ @ @ @ @ @ @ @ @ @ @ @ @ @ @ @ @ @ @ @ @ @ @ @ @ @ @ @ @ @ @ @ @ @ @ @ @ c v b n m M N 0 : = ",
"@ @ @ @ @ @ @ @ @ @ @ @ @ @ @ @ @ @ @ @ @ @ @ @ @ @ @ @ @ @ @ @ @ @ @ @ @ @ @ @ @ @ @ @ @ @ @ @ @ @ @ x x @ B V C Z A S D F : - ",
"# # # $ $ @ @ @ @ @ @ @ @ @ @ @ @ @ @ @ @ @ @ @ @ @ @ @ @ @ @ @ @ @ @ @ @ @ @ @ @ @ @ @ @ @ @ @ @ @ @ x x @ G H J K L P p I : - ",
"$ $ $ $ @ @ @ @ @ @ @ @ @ @ @ @ @ @ @ @ @ @ @ @ @ @ @ @ @ @ @ @ @ @ @ @ @ @ @ @ @ @ @ @ @ @ @ @ @ @ @ x x @ B U J Y L P D F : - ",
"@ @ @ @ @ @ @ @ @ @ @ @ @ @ @ @ @ @ @ @ @ @ @ @ @ @ @ @ @ @ @ @ @ @ @ @ @ @ @ @ @ @ @ @ @ @ @ @ @ @ @ x x @ B V T R E S D F : - ",
"@ @ @ @ @ @ @ @ @ @ @ @ @ @ @ @ @ @ @ @ @ @ @ @ @ @ @ @ @ @ @ @ @ @ @ @ @ @ @ @ @ @ @ @ @ @ @ @ @ @ @ x x @ B V T R E S D F : - ",
"@ @ @ @ @ @ @ @ @ @ @ @ @ @ @ @ @ @ @ @ @ @ @ @ @ @ @ @ @ @ @ @ @ @ @ @ @ @ @ @ @ @ @ @ @ @ @ @ @ @ @ x x @ B V T R E S D F : - ",
"@ @ @ @ @ @ @ @ @ @ @ @ @ @ @ @ @ @ @ @ @ @ @ @ @ @ @ @ @ @ @ @ @ @ @ @ @ @ @ @ @ @ @ @ @ @ @ @ @ @ @ x x @ B V T R E S D F : - ",
"@ @ @ @ @ @ @ @ @ @ @ @ @ @ @ @ @ @ @ @ @ @ @ @ @ @ @ @ @ @ @ @ @ @ @ @ @ @ @ @ @ @ @ @ @ @ @ @ @ @ @ x x @ B V T R E S D F : - ",
"@ @ @ @ @ @ @ @ @ @ @ @ @ @ @ @ @ @ @ @ @ @ @ @ @ @ @ @ @ @ @ @ @ @ @ @ @ @ @ @ @ @ @ @ @ @ @ @ @ @ @ x x @ B V T R E S D F : - ",
"@ @ @ @ @ @ @ @ @ @ @ @ @ @ @ @ @ @ @ @ @ @ @ @ @ @ @ @ @ @ @ @ @ @ @ @ @ @ @ @ @ @ @ @ @ @ @ @ @ @ @ x x @ B V T R E S D F : - ",
"@ @ @ @ @ @ @ @ @ @ @ @ @ @ @ @ @ @ @ @ @ @ @ @ @ @ @ @ @ @ @ @ @ @ @ @ @ @ @ @ @ @ @ @ @ @ @ @ @ @ @ x x @ B V T R E S D F : - ",
"@ @ @ @ @ @ @ @ @ @ @ @ @ @ @ @ @ @ @ @ @ @ @ @ @ @ @ @ @ @ @ @ @ @ @ @ @ @ @ @ @ @ @ @ @ @ @ @ @ @ @ x x @ B V T R E S D F : - ",
"@ @ @ @ @ @ @ @ @ @ @ @ @ @ @ @ @ @ @ @ @ @ @ @ @ @ @ @ @ @ @ @ @ @ @ @ @ @ @ @ @ @ @ @ @ @ @ @ @ @ @ x x @ B V T R E S D F : - ",
"@ @ @ @ @ @ @ @ @ @ @ @ @ @ @ @ @ @ @ @ @ @ @ @ @ @ @ @ @ @ @ @ @ @ @ @ @ @ @ @ @ @ @ @ @ @ @ @ @ @ @ x x @ B V T R E S D F : - ",
"@ @ @ @ @ @ @ @ @ @ @ @ @ @ @ @ @ @ @ @ @ @ @ @ @ @ @ @ @ @ @ @ @ @ @ @ @ @ @ @ @ @ @ @ @ @ @ @ @ @ @ x x @ B V T R E S D F : - ",
"@ @ @ @ @ @ @ @ @ @ @ @ @ @ @ @ @ @ @ @ @ @ @ @ @ @ @ @ @ @ @ @ @ @ @ @ @ @ @ @ @ @ @ @ @ @ @ @ @ @ @ x x @ B V T R E S D F : - ",
"@ @ @ @ @ @ @ @ @ @ @ @ @ @ @ @ @ @ @ @ @ @ @ @ @ @ @ @ @ @ @ @ @ @ @ @ @ @ @ @ @ @ @ @ @ @ @ @ @ @ @ x x @ B V T R E S D F : - ",
"@ @ @ @ @ @ @ @ @ @ @ @ @ @ @ @ @ @ @ @ @ @ @ @ @ @ @ @ @ @ @ @ @ @ @ @ @ @ @ @ @ @ @ @ @ @ @ @ @ @ @ x x @ B V T R E S D F : - ",
"@ @ @ @ @ @ @ @ @ @ @ @ @ @ @ @ @ @ @ @ @ @ @ @ @ @ @ @ @ @ @ @ @ @ @ @ @ @ @ @ @ @ @ @ @ @ @ @ @ @ @ x x @ B V T R E S D F : - ",
"@ @ @ @ @ @ @ @ @ @ @ @ @ @ @ @ @ @ @ @ @ @ @ @ @ @ @ @ @ @ @ @ @ @ @ @ @ @ @ @ @ @ @ @ @ @ @ @ @ @ @ x x @ B V T R E S D F : - ",
"@ @ @ @ @ @ @ @ @ @ @ @ @ @ @ @ @ @ @ @ @ @ @ @ @ @ @ @ @ @ @ @ @ @ @ @ @ @ @ @ @ @ @ @ @ @ @ @ @ @ @ x x @ B V T R E S D F : - ",
"@ @ @ @ @ @ @ @ @ @ @ @ @ @ @ @ @ @ @ @ @ @ @ @ @ @ @ @ @ @ @ @ @ @ @ @ @ @ @ @ @ @ @ @ @ @ @ @ @ @ @ x x @ B V T R E S D F : - ",
"@ @ @ @ @ @ @ @ @ @ @ @ @ @ @ @ @ @ @ @ @ @ @ @ @ @ @ @ @ @ @ @ @ @ @ @ @ @ @ @ @ @ @ @ @ @ @ @ @ @ @ x x @ B V T R E S D F : - ",
"@ @ @ @ @ @ @ @ @ @ @ @ @ @ @ @ @ @ @ @ @ @ @ @ @ @ @ @ @ @ @ @ @ @ @ @ @ @ @ @ @ @ @ @ @ @ @ @ @ @ @ x x @ B V T R E S D F : - ",
"@ @ @ @ @ @ @ @ @ @ @ @ @ @ @ @ @ @ @ @ @ @ @ @ @ @ @ @ @ @ @ @ @ @ @ @ @ @ @ @ @ @ @ @ @ @ @ @ @ @ @ x x @ B V T R E S D F : - ",
"@ @ @ @ @ @ @ @ @ @ @ @ @ @ @ @ @ @ @ @ @ @ @ @ @ @ @ @ @ @ @ @ @ @ @ @ @ @ @ @ @ @ @ @ @ @ @ @ @ @ @ x x @ B V T R E S D F : - ",
"@ @ @ @ @ @ @ @ @ @ @ @ @ @ @ @ @ @ @ @ @ @ @ @ @ @ @ @ @ @ @ @ @ @ @ @ @ @ @ @ @ @ @ @ @ @ @ @ @ @ @ x x @ B V T R E S D F : - ",
"@ @ @ @ @ @ @ @ @ @ @ @ @ @ @ @ @ @ @ @ @ @ @ @ @ @ @ @ @ @ @ @ @ @ @ @ @ @ @ @ @ @ @ @ @ @ @ @ @ @ @ x x @ B V T R E S D F : - ",
"@ @ @ @ @ @ @ @ @ @ @ @ @ @ @ @ @ @ @ @ @ @ @ @ @ @ @ @ @ @ @ @ @ @ @ @ @ @ @ @ @ @ @ @ @ @ @ @ @ @ @ x x @ B V T R E S D F : - ",
"@ @ @ @ @ @ @ @ @ @ @ @ @ @ @ @ @ @ @ @ @ @ @ @ @ @ @ @ @ @ @ @ @ @ @ @ @ @ @ @ @ @ @ @ @ @ @ @ @ @ @ x x @ B V T R E S D F : - ",
"@ @ @ @ @ @ @ @ @ @ @ @ @ @ @ @ @ @ @ @ @ @ @ @ @ @ @ @ @ @ @ @ @ @ @ @ @ @ @ @ @ @ @ @ @ @ @ @ @ @ @ x x @ B V T R E S D F : - ",
"@ @ @ @ @ @ @ @ @ @ @ @ @ @ @ @ @ @ @ @ @ @ @ @ @ @ @ @ @ @ @ @ @ @ @ @ @ @ @ @ @ @ @ @ @ @ @ @ @ @ @ x x @ B V T R E S D F : - ",
"@ @ @ @ @ @ @ @ @ @ @ @ @ @ @ @ @ @ @ @ @ @ @ @ @ @ @ @ @ @ @ @ @ @ @ @ @ @ @ @ @ @ @ @ @ @ @ @ @ @ @ x x @ B V T R E S D F : - ",
"@ @ @ @ @ @ @ @ @ @ @ @ @ @ @ @ @ @ @ @ @ @ @ @ @ @ @ @ @ @ @ @ @ @ @ @ @ @ @ @ @ @ @ @ @ @ @ @ @ @ @ x x @ B V T R E S D F : - ",
"@ @ @ @ @ @ @ @ @ @ @ @ @ @ @ @ @ @ @ @ @ @ @ @ @ @ @ @ @ @ @ @ @ @ @ @ @ @ @ @ @ @ @ @ @ @ @ @ @ @ @ x x @ B V T R E S D F : - ",
"@ @ @ @ @ @ @ @ @ @ @ @ @ @ @ @ @ @ @ @ @ @ @ @ @ @ @ @ @ @ @ @ @ @ @ @ @ @ @ @ @ @ @ @ @ @ @ @ @ @ @ x x @ B V T R E S D F : - ",
"@ @ @ @ @ @ @ @ @ @ @ @ @ @ @ @ @ @ @ @ @ @ @ @ @ @ @ @ @ @ @ @ @ @ @ @ @ @ @ @ @ @ @ @ @ @ @ @ @ @ @ x x @ B V T R E S D F : - ",
"@ @ @ @ @ @ @ @ @ @ @ @ @ @ @ @ @ @ @ @ @ @ @ @ @ @ @ @ @ @ @ @ @ @ @ @ @ @ @ @ @ @ @ @ @ @ @ @ @ @ @ x x @ B V T R E S D F : - ",
"@ @ @ @ @ @ @ @ @ @ @ @ @ @ @ @ @ @ @ @ @ @ @ @ @ @ @ @ @ @ @ @ @ @ @ @ @ @ @ @ @ @ @ @ @ @ @ @ @ @ @ x x @ B V T R E S D F : - ",
"@ @ @ @ @ @ @ @ @ @ @ @ @ @ @ @ @ @ @ @ @ @ @ @ @ @ @ @ @ @ @ @ @ @ @ @ @ @ @ @ @ @ @ @ @ @ @ @ @ @ @ x x @ B V T R E S D F : - ",
"@ @ @ @ @ @ @ @ @ @ @ @ @ @ @ @ @ @ @ @ @ @ @ @ @ @ @ @ @ @ @ @ @ @ @ @ @ @ @ @ @ @ @ @ @ @ @ @ @ @ @ x x @ B V T R E S D F : - ",
"@ @ @ @ @ @ @ @ @ @ @ @ @ @ @ @ @ @ @ @ @ @ @ @ @ @ @ @ @ @ @ @ @ @ @ @ @ @ @ @ @ @ @ @ @ @ @ @ @ @ @ x W @ Q ! C R E S D F : - ",
"@ @ @ @ @ @ @ @ @ @ @ @ @ @ @ @ @ @ @ @ @ @ @ @ @ @ @ @ @ @ @ @ @ @ @ @ @ @ @ @ @ @ @ @ @ @ @ @ @ @ @ x W x Q ! ~ R E S D F : - ",
"@ @ @ @ @ @ @ @ @ @ @ @ @ @ @ @ @ @ @ @ @ @ @ @ @ @ @ @ @ @ @ @ @ @ @ @ @ @ @ @ @ @ @ @ @ @ @ @ @ @ @ x x @ B V T R E S D F : - ",
"@ @ @ @ @ @ @ @ @ @ @ @ @ @ @ @ @ @ @ @ @ @ @ @ @ @ @ @ @ @ @ @ @ @ @ @ @ @ @ @ @ @ @ @ @ @ @ @ @ @ @ $ ^ Q / ( J ) E S D F : - ",
"$ $ $ @ @ @ x x x x x x x x x x x x x x x x x x x x x x x x x x x x x x x x x x x x x x x x x x x x $ c G _ H ~ Y ` L ' D F : - ",
"^ # $ @ @ x x x x x x x x x x x x x x x x x x x x x x x x x x x x x x x x x x x x x x x x x x W W x ^ G ] [ { } |  ...P D F : - ",
"@ @ @ @ @ @ @ @ @ @ @ @ @ @ @ @ @ @ @ @ @ @ @ @ @ @ @ @ @ @ @ @ @ @ @ @ @ @ @ @ @ @ @ @ @ @ @ @ x @ Q _ [ T Y  .X.o.A O.+.F : - ",
"@.@.#.W @ c B B B B B B B B B B B B B B B B B B B B B B B B B B B B B B B B B B B B B B B B B Q Q B / H { Y o.$.Y T %.&.*.0 : = ",
"=.-.;.@.c _ :.H U U :.:.:.:.:.:.:.:.:.:.:.:.:.:.:.:.:.:.:.:.:.:.:.:.:.:.:.:.:.:.:.:.:.:.:.:.:.! ! U >.{ )  .o.Z ,./ <.1., > : . ",
"2.3.4.5.Q 6.7.J J T T T T T T T T T T T T T T T T T T T T T T T T T T T T T T T T T T T T T T 7.{ T 8.Y  .X.Y ,.9.0.q.w.e.r.: . ",
"t.y.u.i.c ,.R Y Y R R R R R R R R R R R R R R R R R R R R R R R R R R R R R R R R R R R R R R R R R ) `  .o.T / 0.p.a.s.d.f.: ; ",
"g.h.a.j.k.l.z.T T { x.x.x.x.x.x.x.x.x.x.x.x.x.x.x.x.x.x.x.x.x.x.x.x.x.x.x.x.x.x.x.x.x.x.x.x.x.x.x.x.{ T T x.:.y c.a.v.b.n.m.: : ",
"M.N.B.V.C.y B G G B B B B B B B B B B B B B B B B B B B B B B B B B B B B B B B B B B B B B B B B B B G G c k.Z.A.S.b.D.F.G.: : ",
"D.H.J.K.V.q.-.L.L.-.-.-.-.-.-.-.-.-.-.-.-.-.-.-.-.-.-.-.-.-.-.-.-.-.-.-.-.-.-.-.-.-.-.-.-.-.-.-.-.-.-.-.-.P.j.I.U.J.n.Y.G.G.: : ",
"G.m.T.R.E.a.W.Q.Q.W.W.W.W.W.W.W.W.W.W.W.W.W.W.W.W.W.W.W.W.W.W.W.W.W.W.W.W.W.W.W.W.W.W.W.W.W.W.W.W.W.W.W.Q.W.a.E.R.T.m.G.: : : : ",
": : m.!.~.h.^././.^.^.^.^.^.^.^.^.^.^.^.^.^.^.^.^.^.^.^.^.^.^.^.^.^.^.^.^.^.^.^.^.^.^.^.^.^.^.^.^.^.^././.^.h.(.!.m.: : : : : : ",
").: G._.`.'.].[.[.].].].].].].].].].].].].].].].].].].].].].].].].].].].].].].].].].].].].].].].].].].[.[.].'.`._.G.: {.: : : : "
};
