/* XPM */
static char *ab001ef1b1444a01ac2ea147fad0daff40iob8Tei92maeFm[] = {
/* columns rows colors chars-per-pixel */
"64 64 227 2 ",
"   c #010406",
".  c #070608",
"X  c #070609",
"o  c #090608",
"O  c #0C0A0C",
"+  c #130507",
"@  c #130C0E",
"#  c #1C0D0E",
"$  c #140F10",
"%  c #1A0F11",
"&  c #0F1115",
"*  c #151113",
"=  c #1B1313",
"-  c #16171B",
";  c #181619",
":  c #1B1B1D",
">  c #2E0B0C",
",  c #271516",
"<  c #241B1B",
"1  c #2B1E1C",
"2  c #3D1214",
"3  c #39191B",
"4  c #2E211F",
"5  c #1B1D20",
"6  c #251F20",
"7  c #3C1E21",
"8  c #242426",
"9  c #2E2121",
"0  c #262528",
"q  c #2A292C",
"w  c #332423",
"e  c #372727",
"r  c #392524",
"t  c #392927",
"y  c #342B2D",
"u  c #3C2B29",
"i  c #2B2D31",
"p  c #332E31",
"a  c #3C2F31",
"s  c #2E3136",
"d  c #333135",
"f  c #35353A",
"g  c #383539",
"h  c #3C3A3E",
"j  c #441415",
"k  c #441A1A",
"l  c #591E1E",
"z  c #671E1E",
"x  c #46201F",
"c  c #481F21",
"v  c #6B1F20",
"b  c #432E2B",
"n  c #4A2928",
"m  c #5B2726",
"M  c #46312E",
"N  c #49322F",
"B  c #453232",
"V  c #4D3431",
"C  c #47383A",
"Z  c #4B393D",
"A  c #513633",
"S  c #5B3532",
"D  c #553935",
"F  c #593B37",
"G  c #553D3B",
"H  c #5B3D39",
"J  c #682526",
"K  c #782828",
"L  c #622D31",
"P  c #673534",
"I  c #753836",
"U  c #56403E",
"Y  c #5C413D",
"T  c #6D4229",
"R  c #62423E",
"E  c #6D433F",
"W  c #373F43",
"Q  c #3C3D42",
"!  c #423E44",
"~  c #4E3E46",
"^  c #513F44",
"/  c #5D3D41",
"(  c #3B4146",
")  c #3B4348",
"_  c #47454A",
"`  c #4C494E",
"'  c #524047",
"]  c #5D4443",
"[  c #544148",
"{  c #5A4449",
"}  c #564A4E",
"|  c #444C51",
" . c #4D4C51",
".. c #554C52",
"X. c #4E5153",
"o. c #555458",
"O. c #54545A",
"+. c #5B5B5C",
"@. c #664642",
"#. c #694743",
"$. c #6B4945",
"%. c #674B4D",
"&. c #6B4C4B",
"*. c #734B46",
"=. c #724E4A",
"-. c #7D4D4A",
";. c #77514C",
":. c #79524D",
">. c #6E5655",
",. c #775251",
"<. c #7C5452",
"1. c #555B61",
"2. c #5C5B62",
"3. c #625E66",
"4. c #5D6369",
"5. c #636165",
"6. c #65636A",
"7. c #686B6D",
"8. c #78656C",
"9. c #626D74",
"0. c #6C6C74",
"q. c #736E76",
"w. c #667279",
"e. c #75737B",
"r. c #78767B",
"t. c #852929",
"y. c #962C2C",
"u. c #9D2E2E",
"i. c #8F302F",
"p. c #8A3534",
"a. c #983938",
"s. c #A73737",
"d. c #AC3333",
"f. c #A63C3C",
"g. c #B23434",
"h. c #984735",
"j. c #AC513C",
"k. c #BC5639",
"l. c #C16029",
"z. c #C96636",
"x. c #863D40",
"c. c #8B4543",
"v. c #854B47",
"b. c #984445",
"n. c #9D4A4C",
"m. c #8E524E",
"M. c #815650",
"N. c #865954",
"B. c #8A5B55",
"V. c #84565B",
"C. c #975559",
"Z. c #A2494B",
"A. c #B5534E",
"S. c #8E614D",
"D. c #BB6C4C",
"F. c #8F5B62",
"G. c #925E62",
"H. c #976467",
"J. c #8F6C73",
"K. c #8A747C",
"L. c #927C7C",
"P. c #A57463",
"I. c #AC7072",
"U. c #C56F60",
"Y. c #B5867B",
"T. c #6E7880",
"R. c #7A7B84",
"E. c #827C85",
"W. c #8A7C84",
"Q. c #957A81",
"!. c #7B828A",
"~. c #7F8A93",
"^. c #84838C",
"/. c #89858D",
"(. c #8A8C8D",
"). c #868992",
"_. c #8B8992",
"`. c #938D94",
"'. c #8F9396",
"]. c #86959E",
"[. c #8C939D",
"{. c #97979B",
"}. c #A69592",
"|. c #8797A0",
" X c #8E96A1",
".X c #8B99A2",
"XX c #929BA5",
"oX c #939BA5",
"OX c #95A2AC",
"+X c #9BA3AA",
"@X c #97A6B0",
"#X c #98A6B1",
"$X c #97A8B2",
"%X c #9AABB5",
"&X c #9CAEB9",
"*X c #9EB1BB",
"=X c #A3A3A4",
"-X c #A9AAAA",
";X c #B0A8AE",
":X c #A3B4BD",
">X c #ACB4B8",
",X c #BBBABB",
"<X c #D48181",
"1X c #D2A5A2",
"2X c #EBBCBC",
"3X c #A7B9C3",
"4X c #AAB9C2",
"5X c #F0BFC0",
"6X c #B7C3CA",
"7X c #BCC9D0",
"8X c #C7C9CA",
"9X c #D6C6C6",
"0X c #C2CED4",
"qX c #D4CED1",
"wX c #C5D1D7",
"eX c #C6D2D8",
"rX c #CDD7DD",
"tX c #D1D6D9",
"yX c #DCDCDC",
"uX c #DCE3E6",
"iX c #E2E2E2",
"pX c #E3EAED",
"aX c #E8EAEB",
"sX c #F5E6E6",
"dX c #ECF1F4",
"fX c #F2F4F5",
"gX c #F7F9FA",
/* pixels */
"~ ~ [ { %.;.;.;.;.;.;.;.;.;.;.;.;.;.@.A 9 * .               * 6 D *.;.;.;.;.;.;.;.;.;.;.;.;.;.;.;.;.;.:.;.;.=.%.{ [ ' ~ ~ ' ' ' ",
"~ ' [ %.&.&.;.;.;.;.;.;.;.;.;.;.;.;.@.A 9 * o o . . . . . . $ 9 V @.;.-.;.;.;.;.;.;.;.;.;.;.;.;.;.;.;.;.;.;.=.%.%.[ ' ' ' ' ' ' ",
"' [ { %.&.;.;.;.;.;.;.;.;.;.;.;.;.;.@.V 9 * . o @ # # # # # , w N / $.=.=.;.;.;.;.;.;.;.;.;.;.;.;.;.;.;.;.;.;.&.@.} { [ [ ' ' ' ",
"{ { %.@.&.=.;.;.;.;.;.;.;.;.;.;.;.;.@.V 9 * o # > 2 j k j 2 k c n N F / $.=.;.;.;.;.;.;.;.;.;.;.;.;.;.;.;.;.;.;.&.%.%.{ [ [ ' ~ ",
"&.&.&.&.;.;.;.;.;.;.;.;.;.;.;.;.;.;.@.V 1 @ @ , k v J K v v v l k r u V R =.;.;.;.;.;.;.;.;.;.;.;.;.;.;.;.;.:.:.,.,.>.%.} [ ~ ~ ",
"=.=.=.;.;.;.;.;.;.;.;.;.;.;.;.;.;.;.#.V 6 $ # 2 l t.y.u.u.u.t.v k , < e D @.;.;.;.;.;.;.;.;.;.;.;.;.;.;.;.;.:.:.M.M.<.,.%.{ [ ~ ",
";.;.;.;.;.;.;.;.;.;.;.;.;.;.;.;.;.;.$.G t , , j v K y.s.d.s.p.J 3 # @ 1 b F @.$.#.#.#.#.#.#.#.$.=.;.;.;.;.;.;.M.N.B.N.,.%.{ ~ ~ ",
";.;.:.;.;.;.;.;.;.;.;.;.;.;.;.;.;.-.&.H V u r k l v K p.b.Z.c.P 7 # o * 1 u V V A N N N N N A H #.;.;.;.;.;.:.M.B.B.V.<.%.{ [ ~ ",
";.;.;.;.;.;.;.;.;.;.;.;.;.;.;.;.;.;.=.$.R F A n c k c L -.F.V.@.e $   @ * , 1 1 1 1 1 1 1 1 r N Y $.;.;.;.;.:.M.B.B.N.,.%.{ ' ~ ",
";.;.;.;.;.;.;.;.;.;.;.;.;.;.;.;.;.;.=.=.=.$.H M 3 , 3 C %.8.8...a ; o o o $ = * = * * $ $ * < e D $.;.;.;.:.:.M.N.B.N.,.%.{ ' ~ ",
";.;.;.;.;.;.;.;.;.;.;.;.;.;.;.;.:.;.=.=.$.@.Y N 6 6 6 ! 2.T.q.3._ i 5 - 5 5 5 5 : 5 5 5 5 5 8 y C Y $.$.;.;.:.M.B.B.N.,.%.{ ' ~ ",
";.;.;.;.;.;.;.;.;.;.;.;.;.;.;.;.:.:.=.$.@.D V a p d Q ..3.R.R.0.2.| ) W W ) W ) ( ( ( ( ) ) W W C A D Y $.&.:.M.N.B.N.,.%.{ ' ~ ",
";.;.;.;.;.;.;.;.;.;.;.;.;.;.;.;.,.;.=.R N w e a ! ` O.6.q.R.E.R.e.w.9.9.9.9.9.9.9.9.9.9.9.9.4.X.Q u t M Y $.:.M.N.B.V.,.%.{ ' ~ ",
";.;.;.;.;.;.;.;.;.;.;.;.;.;.;.;.-.=.$.A r 6 6 d ` 3.q.E.R.E.E.).).].|.|.|.|.|.|.].|.|.|..X|.!.4.W 8 < r A $.:.M.N.N.N.,.%.{ ' ~ ",
";.;.;.;.;.;.;.;.;.;.;.;.;.;.;.;.=.$.H B w 6 6 ! 2.R.E._././._.[.XX@X%X&X&X%X%X%X%X%X&X&X*X%X].9.( 5 * 1 N #.:.M.N.B.N.,.%.{ ' ~ ",
";.;.;.;.;.;.;.;.;.;.;.;.;.;.=.#./ D N a p p Q O.0.W. X X[.'.[..X@X&X*X*X*X*X*X*X*X*X*X3X3X*X|.9.( 5 $ < N $.:.M.N.B.V.,.%.{ ' ~ ",
";.;.;.;.;.;.;.;.;.;.;.;.;.;.$.Y N t e y C ` 2.0.!.[.oXoXoXoXoXOX+X&X&X&X&X&X&X&X&X&X*X*X:X&X].9.( 5 $ < V R :.:.N.S.<.,.%.{ [ ' ",
";.;.;.;.;.;.;.;.;.;.;.;.;.;.#.A r < 6 p ` 6.e.).{.OX$X%X%X$X#X%X%X&X&X&X&X&X&X&X&X&X*X*X:X&X|.7.( 5 * 1 V R <.S.N.B.N.,.%.} ' ' ",
";.;.;.;.;.;.;.;.;.;.;.;.;.:.#.N 1 * ; f O.e.).XXOX#X*X:X:X:X4X4X4X4X4X4X4X4X4X4X4X3X4X6X4X4X+Xw._ 5 * 1 M R :.M.N.B.N.,.%.{ ' ' ",
";.;.;.;.;.;.;.;.;.;.;.;.;.;.#.N 1 $ ; f 2.R.{.OX#X%X:X4X6X7X0XwXwXwXeXeXeXeXwXeXeXeXeXrXrXeX>X!.| 8 * 1 U E :.M.B.B.N.,.%.{ ' ! ",
";.;.;.;.;.;.;.;.;.;.;.;.:.;.#.N 1 $ - Q 4.~.XX%X%X&X:X4X0XyXuXiXpXpXpXpXpXpXpXpXpXpXpXdXdXpX7X'.O.8 * 1 N E :.M.N.B.N.,.%.{ ' ~ ",
";.;.;.;.;.;.;.;.;.;.;.;.;.;.#.V 1 $ 5 W 9.].#X%X%X&X3X7XrXaXfXgXfXfXfXfXdXdXdXfXdXdXfXgXfXdXtX{.+.0 * 1 U R :.<.N.N.N.,.%.{ ' ~ ",
";.;.;.;.;.;.;.:.;.;.;.;.;.;.#.N 1 * 5 ( 9.|.%X:X&X&X4X7XuXfXgXfXaXyXyXyXyXyXyXyXyXyXyXiXiXyX4XY.X.8 * 4 M E :.:.N.B.N.,.%.{ ' ~ ",
";.;.;.;.;.;.;.;.;.;.;.;.;.;.#.N 1 * 5 ) 9.|.&X*X*X&X4X0XpXgXfXyX8X-X=X=X=X=X=X=X=X=X-X-X-X=X(.5.h : * 1 N R :.S.N.B.V.,.%.{ ' ~ ",
";.;.;.;.;.;.;.;.;.;.:.;.;.;.#.N 1 * : ) 9.|.&X*X*X&X3XwXpXfXaX8X{.7.+.X.+.+.+.+.4.5.5.5.5.+.X.h 8 * * 1 V @.:.M.B.B.N.,.%.{ ' ~ ",
";.;.;.;.;.;.;.;.;.;.;.;.;.;.#.N 1 * : ) 9.|.%X*X&X&X3XwXpXfXiX,XR.G q 8 8 q q q q 8 8 q q q 8 5 * O * 9 V $.:.M.N.B.N.,.%.} ' ~ ",
";.;.;.;.;.;.;.;.;.;.;.;.;.;.#.V 1 * : ) 9.].#X%X&X&X4XwXpXfXyX,Xr.' q 8 8 q 8 : & & O * 5 8 8 5 * O * 9 V @.:.M.N.B.N.,.%.{ ' ~ ",
";.;.;.;.;.;.;.;.;.;.;.;.;.;.#.N 1 = - h 6.).oX%X%X&X4XwXpXfXsX8X=Xw.+.+.+.+.X.f 5 . . 5 g X.X.W 0 & * 1 V $.:.M.B.B.N.,.%.} ' ~ ",
";.;.;.;.;.;.;.;.;.;.;.;.;.;.#.N 1 * - h 2.!. XoX@X%X4XwXpXgXgXiX8X-X=X=X-X=X(.+.s - & W 7.'.(.7.( : * 1 V @.:.M.N.B.N.,.%.{ ^ ~ ",
";.;.;.;.;.;.;.;.;.;.;.;.;.;.#.V 1 * ; d O.e._. XoX#X3X0XuXfXgXgXaXiXyXiXuXyX,X(.X.8 8 X.(.,X,X(.+.8 * 1 N #.:.M.N.B.N.,.%.{ ~ ~ ",
";.:.;.;.;.;.;.;.;.;.;.;.;.;.E N 1 * * q _ 3.R.^.[.OX*X6XrXaXaXsXsXsXsXsXsXsX8XY.>.u N <.}.9X9X{.+.8 * 1 N #.:.M.N.B.V.,.%.{ ~ ~ ",
";.;.;.;.;.;.;.;.;.;.;.;.;.;.#.N 1 * * 5 p ` 2.0.!.[.+X>X4XqXqXqX9X2X2X5X5X9X1XY.S.T T S.Y.1X1XL.#.8 * 1 V #.:.M.N.B.N.<.%.{ ' ~ ",
";.;.;.;.;.;.;.;.;.;.;.;.:.=.@.V 6 $ O * 6 i ! O.T.E. X@X;X4X;X1X1X<X<X<X<X<XU.U.j.h.l.j.D.Y.I.m.A < % 1 V @.:.M.N.B.N.,.%.{ ^ ~ ",
";.;.;.;.;.;.;.;.;.;.;.;.:.:.#.V e * O X O - 0 ! 2.R.W.W._. XQ.Q.P.D.A.A.A.A.A.A.k.l.l.l.z.A.b.I c = % 6 V @.:.M.N.B.N.,.%.{ ~ ~ ",
";.;.;.;.;.;.;.;.;.;.;.;.=.:.$.G r < $ O . . & p ..8.Q.W.W.Q.J.G.n.Z.f.f.s.j.g.A.z.z.z.z.k.j.p.J k # $ 6 V @.:.M.N.B.N.,.%.{ ^ ~ ",
";.;.;.;.;.;.;.;.;.;.;.;.;.:.$.Y V r 6 % O . % e / V.F.H.F.F.C.C.m.n.b.b.b.b.Z.A.D.D.D.D.A.n.p.S 7 # % 1 V #.<.M.N.B.N.,.%.{ ' ~ ",
";.;.;.:.;.;.;.;.;.;.;.;.;.;.=.$./ D b 9 % O % 3 L x.n.Z.Z.n.n.C.C.C.F.F.F.F.G.H.P.P.P.P.H.G.,./ e * % 6 V #.:.M.N.B.N.,.%.{ ' ~ ",
";.;.;.;.;.;.;.;.;.;.;.;.;.;.;.=.=.$.H b < % % k J a.f.f.g.f.Z.C.G.J.K.K.K.K.K.K.K.Q.L.L.Q.K.8.{ p ; % 1 V #.,.M.N.N.V.,.%.{ ' ~ ",
";.;.;.;.;.:.;.;.;.;.;.;.;.;.;.-.M.v.#.N 6 % % 3 L a.f.f.g.Z.Z.G.J.W./.).)././././././._._.W.T.1.d ; $ 1 V #.:.M.N.B.N.,.%.{ [ ~ ",
";.;.;.;.;.;.;.;.;.;.;.;.;.;.:.M.v.v.I L 3 % % 7 L c.n.A.Z.Z.C.H.Q._.[. XoXoX[.[. X X X XXX X!.1.Q - $ 6 M #.:.M.B.B.V.,.%.{ ' ~ ",
";.;.;.;.;.;.;.;.;.;.;.;.;.;.-.v.b.b.p.J 3 % = w / <.G.G.G.G.J.Q.`.oX+X$X$X$XOX$XoX@XOX$X#XXX~.2.h : $ 1 V #.:.M.N.B.N.,.%.{ ^ ^ ",
";.;.;.;.;.;.;.;.;.;.;.;.;.;.v.c.b.a.y.J 2 # - p } 8.W.Q.Q.Q.W._.oXoX#X$XOX$XOX$X$X$X#X%X%X#X].9.( 5 * 1 N $.:.M.N.B.N.,.%...' ~ ",
";.;.;.;.;.;.;.;.;.;.;.-.;.-.v.c.f.s.y.v j # - s O.q.E.W.E.W.).).).].[.].|.|.|.|.|.|..XoX#XOX).9.( - * 1 V #.:.M.N.B.N.,.%.[ ' ~ ",
";.;.;.;.;.;.;.;.;.;.;.-.v.c.h.b.s.d.y.z j # - s O.T.^./.E.E.E.R.T.w.w.w.w.9.w.9.9.9.e.!.|.|.).9.( - * 1 N #.:.M.B.B.N.;.%...' ~ ",
";.;.;.;.;.;.;.;.;.;.:.v.c.h.a.s.d.d.u.v j # ; s O.0.E._._._.R.0.1.) ( W ( ( ( ( ( ( | 2.R._.R.3.h - * 1 N #.:.M.N.B.N.,.%.{ ^ ^ ",
";.;.;.;.;.;.;.;.;.;.-.v.b.a.d.d.g.d.u.z 2 # = s O.q.E._./.E.e.2.) s : ; 5 5 5 : 5 : i _ 6.e.e.2.f : * 1 N #.:.M.N.N.N.,.%.{ ^ ~ ",
";.;.;.:.;.;.;.;.;.;.-.c.a.s.d.g.g.d.y.z j # - s O.q.E.W.E.q.5.{ a 8 # o o o o . & - 5 Q O.5.5.` d : = 4 N E ;.M.N.B.V.,.%.{ ^ ~ ",
";.;.;.;.;.;.;.;.;.;.v.c.a.d.d.g.g.d.u.z 2 # - f O.q.E.e.0.+.` ~ n x 2 > + o o * 5 q f ( |  . .! y 6 1 t N Y @.;.N.B.F.,.%.{ ^ ~ ",
";.;.;.;.;.;.;.;.;.;.-.c.a.s.g.g.g.d.y.v j # - f o.e.r.0.o.C a n l z l j > + O 5 g _ ..` _ g p q w w t b V U R E :.B.N.,.%.{ [ ' ",
";.;.;.;.;.;.;.;.;.;.-.v.a.s.d.d.d.d.y.v j # : s O.q.q.2.( 0 < x J t.t.z > # - i  .3.3.O.g 8 : < 9 u M N V D U E ;.N.N.:.%.} ' ' ",
";.;.;.;.;.;.;.;.;.;.*.h.p.a.d.d.d.u.i.z 2 # * i  .5.6. .d < , k J t.i.J 2 # - i ` 2.5. .d : = , r b N V V V D R E <.M.;.%.{ ' ! ",
";.;.;.;.;.;.;.=.$.#.E E I p.t.p.p.p.K l > # * 8 f _  .C q 1 , k J t.K m 2 # * 8 Q  .` _ t < < 4 t N A A A A D P *.=.=.=.%.{ ' ~ ",
":.;.;.;.;.;.;.$.#.Y Y P P P I I I P J x , @ O - 8 i p y 9 w 7 n S L L k , # & - 8 i d p e 9 w t M N V A D D F R R $.$.#.] [ ^ ~ ",
";.;.;.;.;.;.=.$.R D D A D F S S S S N r , $ o O & ; : 1 w u N N S S n n , @ o o @ - < 8 r u M M N N A A D D H H P H @.] ] ^ ' ~ ",
"=.;.;.;.;.:.;.$.R D A V V A N A D V M t < = @ O o & * < y N V D D V N r < * @ O o & # 6 r M V V A V A A D F H H G G F / [ [ ' ~ ",
"$.$.$.;.:.:.:.$.R D A A A A F F D D V b w < < = = , , w b B D F F F N b e < < = = , , 4 b V U D F D D F F H H D A A V G G ' ' ~ ",
"] @.$.=.;.M.M.=.E F D D D F F H Y F A V M u r r r r r b N A D Y Y F D V N u r r r r r b N D A D F F F F H H F D N N B Z G ^ ^ ~ ",
"Y Y @.&.:.<.S.;.#.Y F F F F H F U D F A A V V N N V V A A Y S Y F F F D A N A N N N A A S F T Y F F F H H H D V N M u B C ~ ' ' ",
"U ] Y $.;.<.<.;.*.R H F F D F D T A D U S D D D D D U D T A Y A F F D F F D F D U D D D Y D Y S F D F F F F G V M u B C C ~ ' ' ",
"' U ] ] =.;.;.;.#.R R F D A A V V V N U A D A D A D A A V V A A A V A V A A A A A A A D N A N V V A N A A N V V B B B C ~ ~ ' ' ",
"' U ' ] #.&.&.$.R R U ' V N M M M M M N M V M M N N N N M M M N M M M N M N N N N N N N N N M N N N N M b N N B B C C ~ ~ ^ ^ ~ ",
"' ' ' ] ] Y Y Y R Y U A V M u u u u u u u u u u u u u u u u u a u a u t u u M u u u u a u u u u u u u u u u u B C ~ ~ ~ ~ ^ ' ' ",
"' ' ' ' [ U U Y Y Y G V B u u t t t t u u u t u t u u u u t u t t t t u t t t t u t t t u t t u t t t u u u u B Z ~ ~ [ [ ' ' ' ",
"[ ' _ U U U U U U U G C B u t t t t t t t t t t t t t t u t t t t t t t u t t t t t t y t t t t t t t t e e u B C ~ ' ' ' ' ' ~ "
};
