/* XPM */
static char *_3095f2b37eb47d4943f86ea3e287018efO90zs1kpf24oFJ[] = {
/* columns rows colors chars-per-pixel */
"64 64 30 1 ",
"  c #323A4C",
". c #353E50",
"X c #374153",
"o c #394356",
"O c #3C465A",
"+ c #3E495E",
"@ c #3F4A60",
"# c #424D63",
"$ c #445067",
"% c #465269",
"& c #49556C",
"* c #4A5771",
"= c #4C5973",
"- c #4F5D78",
"; c #505D76",
": c #515F7A",
"> c #54617C",
", c #566482",
"< c #5A6782",
"1 c #5A6985",
"2 c #5B6A89",
"3 c #606F8D",
"4 c #62718E",
"5 c #657493",
"6 c #687795",
"7 c #697897",
"8 c #6B7B9B",
"9 c #6F7FA0",
"0 c #6F80A0",
"q c #7181A2",
/* pixels */
"$$#OXX                        .o++++o.                          ",
"$##+OXX  XXXX XX..............Xo++$+OX..........................",
"#$##++O+OOOOOOoO+OO+O+O+OOOOOO++$+$++OOOO+OOOOO+OOOO++++++OOOOO+",
"$#$$%&&=&&&&&&&&&&&*&&&&&&&&&&&&%$$%&&&&&&&&&&&&&&*&&&&&&&&&&&&&",
"#$%&>>>>>>>>>>>>1<<<<1,13>>3>>>;&$&&;>>><<<<3<113>>3>>>>>>>>>>>>",
"##%->4670786770q555555556656774>;&&;>470666655556665776697867679",
"##&>4700q0087007888898978899q973;&&>>70q98888888998997989988qqqq",
"#$&>48qq08787707788888798789qq94>&&>60qq98887787777779798788qqqq",
"#%&:489986555555555555555568qq84>&&>00q070665555555554566667999q",
"+%&;3798643332222222222222357874>&&>>q076>4>3332223333344>447899",
"+#&;>454>>>>,,,,,,,,1,,,,,<2454>;&&;>>0>3>>><>>>,,,,,,>>>>>34487",
"OO+%;:>:>;;&&**;-::--*****;;>>;;$++$;>>>;;;;&&;;=,;;***&;&;>>>3>",
"Xoo+#$%%###+@##$&*&&##+#####$&$#OoOO#%&$#++++##$%**%$+#++++#$&&&",
"XXooOOOOOO.O.OO@#$$##OOo.OOoOOOoooooOOOOOOOooOO+#$$#+OOoOOOOOOOO",
"++OOOOOOO+OOOOO#####+OOOOOOOOOOOOOOOOOOO+OOO+OO+####++OOOOOOOOOO",
"&&&&&%&&&&&&&&%$%###%%&&&&&&&&&&&&&&&&&&%&&&&&&$$$#$$&&&&&&&&&&&",
">>>>>>>>,111,,>;&&%&;>>3,,,,1,<<<1<<<<,,>3:31<:;*$$*;>3>>3>>3>>>",
"786697705556664>;&&;>56655665565555755755556674,=*&=>36666666679",
"9979880897799973;&&;378q995988888988889798899873;&&;369988888898",
"7777778775999983>&&>38qq959988867787785976899973:&*:389998777877",
"5555644455599983>&&>38qq954555555555555545579973:**:389995554464",
"2222333422257872>&&>>887532222222222222233355973:*&:378753224333",
"22112<3>22257752;&&;>666322222222221222112345952:&&:36863221113>",
"212222<322235741;&&;>>33222,22211122,22222245542;&&;>46552211113",
"222222222222452,;&%&=>>>>1322222222222222222453,=&&-,23522222222",
"211211221222222,=%$$%%&>>112221112222,22122222,,*&%*,2222222222,",
",,,,,,,,,,,,,,:-&$++##$&->,,,>>,,,,,,,,,,,,,,,,**#$%=,,,,,,,,,,,",
",=,--*********&$#+OOoOO#$&&=**----,==**%***=**&$#@O#$&***=******",
"****$@##@@##@##@OooXXXoOO@#####$&**&%@@@#####$##.oOO#######$@@@#",
"%%$$@@O.@.O.@.O.oXXXXXXXooooooO@##%#@OOOO..O.....O.....Oooo..OOo",
"@$@@@@OO@OOOOOOOOOO+O+O++O+o+OO@####@@@OOOOO#O.#OO#OOOOO@OOOOOOO",
"@%%$$%%&%*%*&&&&&&&&&&&&&&&&&&&$$###$%%*&&&&&*&**&&*&&*&&&&&&&%*",
"@$%&;>,11<<<<1,,>11111,,>>>>1>>=*%%&;><<,,,1<<1<<<<<1,,1<<<<<<<<",
"#$%;1456656555557655555506040641-%%;<377555575555665556565565655",
"@$&>2790088808990007078800000062:&&:3799995988888889979788899999",
"@$&>4800088877597678779566600002:*&:3899959978788776955977889qqq",
"#$&>3800655555555555555544670073>&&:37989555555455555555555680qq",
"@$&>2588532222222222222223457072:&&:358852222222222222222235789q",
"##&>25855221,1,,1221121122257752>&&;3686522,22122222221,21255888",
"##$>1555521,,:,,,,22222212245552;&&;<455322222221112222222235678",
"#$&;>354321,-=-:,,2222222223453,;&&=,345322222222222222222223555",
"##%=>12221,,-%%-,,2212211122222,*&&=:122222111121221211222222222",
"+#$&=>,,,,>=%@&=-,,,,,,,>1,,,,:,&##&-::,,,,,,,,,,,,,,,,:,,,:,,,,",
"OO+#%&*===&%@@@@*=:----@***=**@@#+O#$*******=*==--:--***********",
"ooooO@@@@@@Oooo@%=**@@@@@@@@@@@OOooOO###@@#@###$****$###@@##@@@@",
"XXoooooOoOOooooO@@%@@@OOoOOOOOOooooooooOoOooooO@@$$@+OoOOOooooo@",
"OOO+OO++OO+OOO++@@&@@@@OOOOOOOOOOOOOOOOO@OOOOOO###@##OOOOOOOOO@O",
"&&&&&&&&&&&&&&&&%%@@&@&&&&&&&&&%&&&&&&&&%*&&&&&$$#$$$%&&&*%&*%*%",
"1>112,11<1>11>>>=$%&;>>>>;>>11>1>11>11,1>>>>>>>;*$$*>>>>3>>>>>>>",
"666655556656855>=&%;;00>00005566665556550404004>-%&;>4777766067q",
"808897998070000>>&&;>00000000700000007070000000>:&&:3799q8887000",
"6768585577700004;&=>0000000>77577677777706000003:&&:370007787777",
"4555555555580063:=&>10000>5454554555555535500042>&&>379985556655",
"2222222222457063:&&;12000432232222322222>3340052:&&:37885322>433",
"221121221244775>-&&-1002>43221221221212112240502:&&:2587522112>3",
"1222212111145643-&&-,2046>1112211122212212245521;&&;<4553221122<",
"222222211222532,=%%->00222222222222222222222442,-&&-,2452222,2,2",
"2222,1222222222,=%%=->222222,212212,2,2,1122222:**@=,12222112222",
",,,,,,1,,,,,2,,=*%%*=>,1,,2,,,1,,,,,,,,,1,1>2,,-*%@--,,12,,,,,,,",
"-,::-,:>-,-,---*%$%*=-->,---,:::-,-,,-,,::>:::-=*@*@*=::-,-,,-,,",
"@-**=*=********%%@%%%*==*==*=======-@=========**%%@*========%-**",
"@-@@%%%%&%%&%%%%%$%@@%%%@**@&*@&@*@-@-@@%%%%@*@*@%&@@&@*%%%*@%%%",
"@@*@$$@$@@$$@$@$@%@%%@%%%@@@&@@*@*@@@*@=%%@%@&&@@@@@&@@&@@%@@*@@",
"**@@$@$$@%$@$$$@%@%%@%@%@%@%@&@@@@*@@@@@@%@%@@@@&&@&@@&@@%@%@@@%"
};
